<svg width="1600" height="900" viewBox="0 0 1600 900" fill="none" xmlns="http://www.w3.org/2000/svg">
<g clip-path="url(#clip0_185_77)">
<g opacity="0.05">
<path d="M345.916 494.047C341.841 470.011 342.84 442.871 358.909 424.525C364.896 417.692 372.566 412.579 380.091 407.495C442.52 365.248 501.721 318.233 557 267C541.873 292.871 526.737 318.733 511.6 344.605C505.132 355.657 498.664 366.718 491.389 377.251C478.982 395.232 464.326 411.532 449.718 427.774C440.175 438.383 430.603 449.032 419.849 458.412C398.283 477.229 372.075 490.684 344.215 497.248C396.765 450.964 415.774 416.866 466.412 371.85" stroke="#003F03" stroke-width="5" stroke-miterlimit="10" stroke-linecap="round" stroke-linejoin="round"/>
<path d="M326.272 489.252C325.897 484.254 319.246 482.793 314.249 483.159C290.646 484.879 268.378 496.344 251.07 512.499C233.761 528.645 221.104 549.259 211.561 570.921C205.968 583.607 201.384 596.725 195.387 609.219C190.341 619.733 184.315 629.747 178.145 639.636C155.888 675.291 131.506 709.629 105.164 742.382C160.347 696.703 212.215 647.007 260.19 593.804C267.571 585.616 274.875 577.332 281.525 568.538C300.054 544.022 313.201 515.95 326.214 488.118C287.464 534.027 275.74 533.123 236.99 579.033" stroke="#003F03" stroke-width="5" stroke-miterlimit="10" stroke-linecap="round" stroke-linejoin="round"/>
<path d="M321.101 478.776C316.056 474.163 308.127 459.008 304.956 452.107C299.372 439.912 296.498 423.91 297.488 410.561C299.526 383.162 318.17 358.53 329.404 334.466C334.633 323.25 342.254 310.449 341.456 297.581C341.456 325.057 345.838 351.86 347.165 379.135C348.279 401.941 350.48 428.081 343.916 450.079C340.591 461.237 345.781 481.496 336.978 488.963C334.392 479.487 325.205 465.533 324.369 455.846C323.513 445.803 322.917 435.25 323.946 425.083C325.762 407.111 325.137 409.418 329.001 391.83" stroke="#003F03" stroke-width="5" stroke-miterlimit="10" stroke-linecap="round" stroke-linejoin="round"/>
<path d="M321.62 476.662C309.165 456.855 284.072 449.868 261.199 444.957C242.978 441.046 224.045 437.451 205.843 441.478C195.704 443.717 186.228 448.244 177.108 453.203C147.238 469.454 119.656 490.972 87 500.477C100.349 501.736 113.486 497.315 126.422 493.788C187.92 476.989 252.829 479.526 316.536 482.207C319.045 480.314 318.237 476.037 315.787 474.067C313.336 472.097 309.982 471.799 306.849 471.578C274.683 469.3 262.401 462.477 230.234 460.199" stroke="#003F03" stroke-width="5" stroke-miterlimit="10" stroke-linecap="round" stroke-linejoin="round"/>
<path d="M331.077 490.203C322.293 526.761 313.663 566.087 327.396 601.089C336.612 624.577 355.382 644.278 359.783 669.121C359.697 640.463 361.177 611.785 364.223 583.281C365.28 573.382 366.53 563.406 365.521 553.498C363.003 528.799 346.982 507.771 330.788 488.954C342.811 511.875 342.811 538.986 342.513 564.867C342.408 574.679 342.302 584.501 342.187 594.323" stroke="#003F03" stroke-width="5" stroke-miterlimit="10" stroke-linecap="round" stroke-linejoin="round"/>
<path d="M346.886 506.695C364.156 522.879 381.532 539.13 401.224 552.258C420.916 565.386 443.231 575.333 466.796 577.524C489.121 579.59 513.887 575.256 532.166 588.23C520 580.09 512.263 566.856 501.336 557.121C495.022 551.499 487.718 547.116 480.472 542.763C468.728 535.728 456.993 528.683 445.259 521.639C432.496 513.989 419.609 506.281 405.481 501.62C385.193 494.931 363.022 494.883 342.225 499.775C374.439 509.626 405.654 522.763 435.216 538.909" stroke="#003F03" stroke-width="5" stroke-miterlimit="10" stroke-linecap="round" stroke-linejoin="round"/>
</g>
<g opacity="0.05">
<path d="M1328.48 352.942C1289.97 366.937 1251.92 384.676 1222.11 412.781C1215.36 419.151 1209.08 425.993 1202.82 432.847C1192.22 444.411 1181.64 455.988 1171.04 467.552C1156.2 483.747 1141.04 500.473 1133.22 520.999C1122.96 547.952 1125.1 581.449 1104 601.122C1130.87 619.356 1157.73 637.602 1184.61 655.836C1188.9 658.75 1193.38 661.745 1198.51 662.54C1206.16 663.726 1213.93 659.833 1221.58 661.088C1234.9 663.277 1243.81 680.221 1257.16 678.343C1264.75 677.272 1270.21 670.234 1277.59 668.126C1292.57 663.841 1307.17 681.177 1322.35 677.641C1331.44 675.533 1337.17 666.675 1345.21 661.929C1359.43 653.544 1379.33 658.785 1392.3 648.591C1400.92 641.818 1404.6 629.447 1414.51 624.782C1422.74 620.911 1432.52 623.711 1441.48 622.109C1464.97 617.928 1472.11 588.728 1484.37 568.26C1490.88 557.398 1499.87 548.171 1506.12 537.159C1524.23 505.195 1515.42 463.429 1494.21 433.434C1473.82 404.614 1443.13 384.641 1416.56 362.099C1389.47 339.096 1361.87 340.801 1328.48 352.942Z" fill="#003F03"/>
<path d="M1748.2 289.07C1759.11 285.177 1771.45 281.341 1781.87 286.386C1785.16 287.976 1788.23 290.452 1791.88 290.706C1795.57 290.959 1798.94 288.897 1802.2 287.147C1811.16 282.32 1821.7 279.36 1831.57 281.86C1841.44 284.359 1850.04 293.539 1849.29 303.699C1867.07 296.062 1890.35 309.504 1892.63 328.717C1905.7 324.64 1921.25 331.24 1927.4 343.473C1933.54 355.706 1929.56 372.108 1918.49 380.171C1929.8 388.741 1922.81 406.664 1914.68 418.298C1908.47 427.179 1903.37 436.106 1894.27 442.176C1900.05 451.76 1895.87 458.452 1886.16 462.817C1876.51 467.16 1872.11 476.029 1864.47 483.079C1866.76 481.581 1869.93 484.265 1869.91 487.007C1869.88 489.748 1867.91 492.04 1865.98 493.975C1849.04 510.908 1820.86 529.556 1800.36 542.48C1778.4 556.326 1752.83 563.168 1727.44 568.605C1702.07 574.041 1675.5 578.234 1650.36 571.738C1617.98 563.364 1592.52 538.403 1572.39 511.691C1560.91 496.452 1550.32 479.577 1548.04 460.629C1543.53 423.101 1576.57 377.948 1603.99 353.897C1643.39 319.33 1700.03 306.244 1748.2 289.07Z" fill="#003F03"/>
<path d="M1381.13 405.501C1367.89 383.834 1356.52 359.576 1357.78 334.223C1358.32 323.315 1361.2 312.603 1361.53 301.672C1362.05 284.843 1356.52 268.452 1354.69 251.715C1352.85 234.979 1355.76 215.927 1369.07 205.606C1357.64 198.707 1361.46 180.645 1370.21 170.567C1378.95 160.488 1391.4 152.724 1395.41 139.996C1396.98 135.008 1397.1 129.572 1399.37 124.861C1401.64 120.149 1407.37 116.348 1412.02 118.733C1415.83 120.679 1416.9 125.552 1419.56 128.904C1427.37 138.752 1443.97 132.117 1455.17 137.831C1466.32 143.521 1469.12 159.923 1480.74 164.577C1486.16 166.754 1492.51 165.821 1497.83 168.24C1508.59 173.112 1509.89 188.386 1518.9 196.023C1527.35 203.187 1540.58 202.001 1549.23 208.912C1562.87 219.797 1556.96 242.201 1565.03 257.671C1570.92 268.947 1583.75 275.409 1589.28 286.859C1596.48 301.741 1589.41 320.804 1597.33 335.306C1600.57 341.227 1606.04 345.777 1608.75 351.951C1612.97 361.58 1609.6 372.673 1606.2 382.613C1590.18 429.517 1561.02 481.443 1506.14 488.861C1446.71 496.878 1408.82 450.815 1381.13 405.501Z" fill="#003F03"/>
<path d="M1484.87 510.724C1481.17 539.071 1480.27 567.787 1482.2 596.308C1483.57 616.649 1486.33 634.93 1484.92 655.214C1484.44 662.298 1484.03 669.808 1487.35 676.074C1490.67 682.352 1499.19 686.429 1505.11 682.525C1506.61 689.804 1508.18 697.292 1512.27 703.512C1516.36 709.72 1523.62 714.431 1530.97 713.291C1523.37 714.477 1547.88 741.88 1549.97 743.355C1560.41 750.796 1577.27 755.875 1589.66 758.237C1596.35 759.515 1603.25 760.218 1609.48 762.982C1621.23 768.212 1631.17 780.756 1643.83 778.452C1648.42 777.611 1652.47 774.823 1657.07 774.075C1662.77 773.153 1668.41 775.48 1673.88 777.312C1690.45 782.864 1708.38 784.257 1725.59 781.297C1729.76 758.732 1746.89 719.453 1738.16 698.317C1737.16 695.898 1736.15 693.341 1736.5 690.737C1738.7 674.127 1742.96 660.639 1742.14 642.946C1741.46 628.26 1730.31 608.172 1730.96 596.457C1731.1 593.946 1732.8 591.792 1733.32 589.339C1736.22 575.816 1702.82 536.411 1694.2 525.238C1687.35 516.357 1681.38 507.453 1672.88 499.897C1659.01 487.549 1644.75 489.426 1630.61 480.683C1626.91 478.403 1624.57 474.532 1621.84 471.157C1609.28 455.665 1587.29 450.459 1567.51 453.073C1531.84 457.773 1490.01 471.411 1484.87 510.724Z" fill="#003F03"/>
<path d="M1496.44 410.431C1486.12 404.073 1472.75 402.978 1461.54 407.586C1455.4 400.041 1444.15 398.037 1434.88 401.009C1425.62 403.98 1418.21 411.099 1412.62 419.058C1409.85 422.998 1407.41 427.237 1403.92 430.542C1400.64 433.652 1396.57 435.783 1392.79 438.283C1384.87 443.512 1377.94 450.689 1374.66 459.604C1371.4 468.508 1372.34 479.266 1378.5 486.489C1371.15 494.171 1374.26 508.12 1382.97 514.237C1391.68 520.353 1403.71 519.754 1413.48 515.562C1414.67 530.547 1425.91 544.231 1440.38 548.298C1454.86 552.375 1471.57 546.558 1480.41 534.383C1484.54 539.877 1492.41 542.204 1498.86 539.843C1504.27 537.873 1508.21 533.197 1511.58 528.52C1520.96 515.469 1528.14 500.403 1529.49 484.392C1531.16 464.027 1514.5 421.558 1496.44 410.431Z" fill="#003F03"/>
<path d="M1556.67 386.507C1559.03 377.764 1561.53 368.722 1567.26 361.696C1572.98 354.669 1582.85 350.165 1591.3 353.448C1598.21 340.052 1618.04 335.594 1630.02 344.763C1631.42 345.823 1632.82 347.09 1634.57 347.251C1637 347.482 1639.01 345.546 1640.87 343.957C1646.56 339.107 1654.42 336.481 1661.69 338.209C1668.96 339.937 1675.12 346.583 1675.14 354.047C1684.33 356.455 1694.6 346.111 1702.67 351.121C1706.43 353.46 1707.76 358.251 1708.22 362.652C1709.87 378.605 1703.44 395.18 1691.47 405.846C1688.78 408.254 1685.7 410.534 1684.41 413.909C1683.24 416.962 1683.76 420.383 1683.23 423.608C1680.61 439.539 1657.28 441.232 1647.48 454.064C1642.8 460.214 1641.69 468.462 1637.37 474.889C1627.89 489.011 1607.13 489.334 1590.74 484.784C1586.8 483.689 1582.84 482.399 1578.75 482.492C1555.09 482.998 1531.42 483.517 1527.1 454.513C1523.66 431.602 1536.76 398.117 1556.67 386.507Z" fill="#003F03"/>
<path d="M1501.17 435.404C1500.86 431.568 1501.23 427.49 1499.41 424.104C1498.26 421.961 1496.34 420.337 1494.98 418.322C1491.14 412.643 1492.35 405.052 1494.07 398.417C1497.62 384.71 1502.73 371.418 1509.27 358.862C1513.12 365.255 1517.16 371.844 1523.31 376.071C1527.24 378.755 1531.8 380.321 1536.02 382.533C1549.61 389.652 1559.17 403.969 1560.53 419.266C1564.35 461.966 1504.91 482.043 1501.17 435.404Z" fill="#003F03"/>
<path d="M1539.73 466.043C1540.43 464.465 1539.39 462.368 1537.72 461.954C1524.82 464.027 1519.62 479.439 1517.02 492.248C1516.55 494.575 1516.25 497.397 1518.06 498.929C1519.65 500.276 1522.1 499.885 1523.96 500.852C1527.62 502.764 1526.8 508.086 1527.51 512.152C1530.13 527.552 1555.73 526.066 1563.21 539.774C1571.35 526.228 1576 510.609 1576.6 494.805C1576.95 485.268 1575.64 475.131 1569.76 467.632C1563.86 460.134 1552.27 456.54 1544.4 461.942L1539.73 466.043Z" fill="#003F03"/>
<path opacity="0.38" d="M1311.92 372.719C1303.06 372.719 1292.57 375.737 1290.01 384.215C1288.3 389.882 1290.92 396.033 1294.7 400.583C1302.02 409.418 1313.1 414.013 1322.83 420.072C1332.58 426.131 1341.96 435.415 1341.89 446.888C1317.57 437.304 1290.07 435.991 1264.94 443.202C1268.57 452.831 1277.91 458.867 1284.69 466.619C1291.48 474.36 1295.26 487.422 1287.53 494.218C1282.58 498.56 1275.19 498.238 1268.69 497.27C1250.76 494.621 1233 489.023 1214.91 490.232C1175.89 492.847 1143.37 532.229 1148.17 571.047C1160.46 579.997 1182.26 575.079 1188.49 588.936C1190.64 593.727 1189.88 599.256 1190.44 604.474C1191.98 619.23 1204.26 631.094 1218.06 636.531C1231.86 641.967 1247.08 642.175 1261.92 642.244C1290.92 642.382 1324.62 639.906 1341.19 616.108C1349.4 604.324 1353.07 587.726 1366.28 582.094C1371.81 589.443 1379.38 595.87 1388.46 597.298C1397.54 598.726 1407.99 593.658 1410.2 584.743C1413.21 572.614 1400.57 562.12 1388.51 558.849C1376.45 555.566 1362.95 555.658 1352.84 548.321C1334.76 535.19 1338.25 506.831 1348.94 487.203C1360.83 465.375 1386.17 440.034 1376.82 413.472C1368.23 389.145 1336.15 372.731 1311.92 372.719Z" fill="#003F03"/>
<path opacity="0.38" d="M1506.52 648.049C1511.87 650.318 1517.69 646.252 1523.47 645.71C1536.92 644.466 1544.17 661.272 1545.01 674.749C1545.85 688.226 1546.03 704.525 1557.67 711.355C1567 716.838 1578.98 712.968 1589.54 715.306C1605.03 718.727 1616.17 735.095 1632.02 735.36C1641.87 735.521 1650.98 729.186 1660.83 729.439C1675.16 729.796 1688.25 743.884 1701.83 739.276C1691.55 710.445 1663.4 692.729 1642.33 670.533C1640.26 668.345 1638.19 666.006 1637.28 663.127C1635.05 656.1 1641.04 648.509 1648.17 646.655C1655.3 644.8 1662.85 647.208 1669.48 650.433C1680.13 655.605 1689.71 662.919 1697.5 671.835C1699.44 674.069 1701.7 676.603 1704.66 676.557C1707.36 676.523 1709.5 674.3 1711 672.054C1719.93 658.623 1715.58 638.177 1701.93 629.573C1697.2 626.589 1691.63 624.908 1687.34 621.302C1683.05 617.697 1680.45 610.97 1683.81 606.489C1686.46 602.976 1691.4 602.423 1695.45 600.672C1705.19 596.457 1709.73 584.27 1707.62 573.857C1705.51 563.444 1698.13 554.805 1689.7 548.355C1678.01 539.416 1661.58 533.853 1648.66 540.902C1622.38 555.243 1620.93 557.57 1589.47 552.214C1573.76 549.541 1552.63 545.913 1536.94 550.463C1510.65 558.088 1474.77 634.618 1506.52 648.049Z" fill="#003F03"/>
<path opacity="0.38" d="M1391.87 357.261C1391.48 354.807 1391.32 352.1 1392.74 350.062C1394.2 347.942 1396.93 347.17 1398.98 345.615C1404.83 341.158 1403.51 331.69 1399.28 325.677C1395.05 319.653 1388.71 315.287 1384.88 308.998C1381.07 302.709 1381.15 292.825 1387.78 289.635C1396.32 285.523 1404.36 295.728 1408.99 303.987C1418.76 321.403 1431.49 337.172 1446.47 350.384C1451.83 355.107 1462.22 358.309 1464.33 351.49C1465.18 348.714 1463.78 345.788 1462.3 343.289C1448.71 320.332 1426.03 304.575 1405.07 288.057C1397.62 282.182 1389.56 274.292 1391.02 264.916C1392.71 254.031 1409.99 250.23 1416.1 259.41C1414.12 248.709 1405.11 240.957 1399.25 231.777C1393.39 222.596 1392.07 207.876 1401.79 202.98C1410.1 221.974 1422.43 239.183 1437.75 253.155C1433.48 232.099 1429.22 211.043 1424.94 189.987C1423.61 183.422 1422.47 175.934 1426.51 170.578C1429.78 166.247 1435.64 164.658 1441.08 164.75C1455.2 164.969 1467.83 174.598 1475.44 186.486C1483.05 198.384 1486.55 212.368 1489.92 226.086C1494.64 245.3 1499.37 264.513 1504.09 283.726C1513.74 281.054 1513.19 264.455 1522.75 261.495C1531.78 258.707 1538.09 270.929 1537.84 280.374C1537.58 289.819 1535.59 301.05 1542.74 307.212C1550.06 303.469 1557.37 299.725 1564.7 295.982C1568.57 312.822 1569.29 330.376 1566.82 347.47C1565.95 353.46 1562.49 361.016 1556.53 359.933C1554.8 359.622 1553.32 358.562 1551.95 357.468C1544.66 351.709 1538.64 344.395 1531.02 339.073C1523.39 333.751 1513.21 330.641 1504.79 334.581C1498.9 337.334 1494.99 342.955 1490.93 348.046C1466.95 378.041 1401.84 420.083 1391.87 357.261Z" fill="#003F03"/>
<path opacity="0.38" d="M1442.29 430.208C1434.14 436.785 1434.76 450.757 1426.02 456.54C1423.49 458.21 1420.49 458.947 1417.65 460.007C1407.42 463.831 1399.05 472.343 1395.41 482.641C1394.56 485.048 1393.97 487.744 1394.95 490.105C1396.71 494.344 1402.44 495.162 1406.92 494.229C1411.41 493.296 1415.9 491.257 1420.39 492.155C1428.15 493.71 1431.49 502.661 1434.03 510.148C1436.58 517.635 1441.74 526.285 1449.62 525.56C1457.9 524.799 1464.02 513.569 1471.87 516.276C1475.3 517.462 1477.57 521.136 1481.13 521.85C1484.82 522.588 1488.45 519.685 1489.83 516.183C1491.21 512.693 1490.91 508.788 1490.59 505.045C1489.4 491.222 1482.31 397.898 1442.29 430.208Z" fill="#003F03"/>
<path opacity="0.38" d="M1586.92 407.747C1592.09 404.879 1598.73 403.911 1602.18 399.108C1603.85 396.793 1604.5 393.924 1605.34 391.206C1608.7 380.379 1615.92 370.807 1625.4 364.586C1629.32 362.018 1634.12 359.968 1638.6 361.315C1645.05 363.262 1647.5 370.841 1651.41 376.312C1655.33 381.784 1665.61 384.318 1667.52 377.867C1675.16 394.247 1669.23 415.775 1654.27 425.923C1646.46 431.21 1636.12 434.274 1632.21 442.856C1629.78 448.212 1630.46 454.754 1627.23 459.673C1622.9 466.262 1612.99 467.01 1605.96 463.428C1589.79 455.181 1560.76 422.26 1586.92 407.747Z" fill="#003F03"/>
<path opacity="0.38" d="M1535.03 439.573C1528.18 442.649 1518.35 444.872 1514.61 438.352C1513.24 435.956 1513.25 433.042 1513.3 430.278C1513.49 420.832 1513.67 411.375 1513.86 401.93C1513.9 399.626 1514.01 397.138 1515.44 395.318C1518.6 391.287 1525.51 393.867 1528.18 398.256C1530.82 402.644 1531.15 408.093 1533.51 412.642C1536.16 417.768 1541.23 421.443 1543.33 426.822C1545.44 432.19 1541.47 440.333 1536 438.513L1535.03 439.573Z" fill="#003F03"/>
<path opacity="0.38" d="M1551.21 479.093C1549.99 474.509 1542.58 475.43 1539.9 479.347C1535.15 486.292 1539.07 495.646 1543.04 503.052C1546.05 508.662 1549.06 514.26 1552.06 519.869C1565.8 510.666 1565.15 486.684 1550.92 478.241L1551.21 479.093Z" fill="#003F03"/>
<path opacity="0.2" d="M1691.96 589.719C1682.2 585.318 1671.77 582.105 1661.38 579.536C1650.13 576.76 1638.31 575.078 1626.97 578.142C1620.01 566.036 1610.74 552.836 1599.22 543.92C1601.64 542.953 1603.89 541.525 1606.37 540.522C1610.52 538.841 1614.94 537.723 1619.37 537.032C1629.07 535.5 1639.1 536.053 1648.82 537.044C1667.33 538.933 1695.56 539.29 1702.66 560.634C1703.12 562.028 1705.23 561.475 1704.88 560.024C1699.44 537.631 1672.43 533.392 1653.23 530.709C1642.25 529.177 1631.1 528.105 1620.03 529.338C1614.67 529.937 1609.33 530.997 1604.27 532.874C1600.26 534.36 1595.55 536.099 1593.21 539.843C1591.85 539.036 1590.5 538.207 1589.1 537.539C1583.99 535.12 1578.43 541.294 1582.82 545.683C1589.53 552.398 1596.92 558.169 1603.22 565.322C1594.62 569.595 1586.75 577.612 1580.83 584.454C1573.1 593.393 1566.82 603.506 1562.19 614.38C1557.65 625.046 1554.83 636.15 1554.02 647.727C1553.61 653.682 1553.69 659.66 1554.31 665.592C1554.85 670.741 1555.08 676.753 1558.11 681.096C1558.29 681.361 1558.84 681.396 1558.91 680.992C1559.69 676.166 1558.29 671.259 1558.06 666.398C1557.81 660.985 1558 655.548 1558.61 650.157C1559.88 638.869 1562.94 627.431 1567.43 617.006C1571.74 607.031 1577.52 597.632 1584.63 589.408C1588.17 585.307 1592.03 581.483 1596.17 577.981C1599.6 575.09 1603.39 572.659 1606.92 569.906C1612.56 577.036 1617.68 584.616 1622.13 592.518C1626.38 600.062 1629.99 607.895 1633.38 615.831C1633.36 615.843 1633.35 615.82 1633.33 615.831C1628.87 617.409 1625.38 621.706 1622.17 625.046C1618.55 628.813 1615.2 632.821 1612.09 637.003C1605.82 645.411 1600.71 654.615 1596.69 664.29C1588.52 684.01 1585.95 705.158 1588.84 726.284C1589.04 727.723 1591.5 727.389 1591.39 725.938C1589.83 705.85 1593.39 685.312 1601.2 666.732C1605.01 657.656 1609.93 648.993 1615.81 641.08C1618.8 637.049 1622.07 633.225 1625.56 629.608C1628.58 626.486 1632.75 623.687 1635.24 620.105C1639.88 631.335 1644.03 642.797 1648.19 654.223C1650.79 661.365 1653.51 668.426 1656.34 675.406C1654.18 677.491 1653.05 680.716 1651.91 683.446C1650.57 686.625 1649.41 689.873 1648.47 693.202C1646.54 700.033 1645.48 707.14 1645.26 714.235C1644.83 728.184 1648.44 741.868 1655.05 754.113C1655.5 754.954 1656.64 754.216 1656.3 753.387C1651.05 741.062 1649.12 727.585 1649.75 714.235C1650.06 707.75 1651.15 701.334 1652.98 695.103C1653.91 691.9 1655.04 688.756 1656.38 685.703C1657.03 684.206 1657.91 682.709 1658.68 681.188C1670.99 710.284 1686.62 737.088 1712.76 756.992C1713.29 757.395 1713.92 756.532 1713.46 756.094C1697.15 740.452 1683.73 722.16 1674.18 701.668C1666.31 684.759 1660.72 666.951 1655.16 649.166C1669.02 651.102 1683.2 653.578 1695.55 660.339C1702.63 664.221 1708.87 669.566 1713.22 676.419C1718.09 684.091 1720.24 693.191 1720.95 702.164C1721 702.763 1721.96 703.004 1722.08 702.313C1724.98 684.943 1714.96 668.011 1700.85 658.439C1686.82 648.936 1669.6 645.642 1653.16 642.854C1652.28 640.021 1651.39 637.175 1650.48 634.353C1644.97 617.34 1638.72 600.477 1630.39 584.627C1649.33 581.817 1669.22 586.758 1686.93 593.301C1705.36 600.097 1720.34 612.952 1722.55 633.374C1722.69 634.676 1724.41 634.653 1724.57 633.374C1727.22 613.159 1708.49 597.183 1691.96 589.719Z" fill="#003F03"/>
<path opacity="0.2" d="M1536.25 271.643C1542.61 255.551 1545.19 235.601 1532.94 221.594C1531.58 220.039 1529.42 222.285 1530.71 223.829C1542.51 238.135 1537.56 258.684 1530.19 273.866C1521.99 290.752 1510.36 306.233 1497.21 319.618C1494.99 313.951 1492.57 308.41 1490.23 303.146C1482.13 284.878 1471.28 269.063 1459.34 253.155C1454.18 246.29 1449.58 239.183 1445.36 231.88C1455.26 221.997 1461.4 208.463 1462.11 194.479C1462.77 181.625 1459.73 165.533 1449.87 156.491C1449.24 155.903 1448.43 156.629 1448.74 157.366C1451.23 163.195 1453.98 168.966 1455.35 175.186C1456.71 181.337 1456.96 187.729 1456.24 193.973C1454.84 205.894 1450.23 217.183 1442.05 225.994C1437.64 217.666 1433.81 209.027 1430.75 199.905C1424.6 181.601 1421.58 162.584 1416.46 144.028C1416.17 142.956 1414.43 143.141 1414.48 144.293C1416.11 177.328 1422.67 212.909 1439.42 242.028C1436.18 240.312 1432.96 238.561 1429.85 236.591C1423.57 232.618 1417.85 227.849 1412.74 222.458C1402.46 211.608 1395.67 198.373 1390.49 184.458C1390.13 183.479 1388.35 183.514 1388.51 184.723C1390.55 200.008 1398.41 213.888 1408.46 225.407C1417.51 235.785 1430.25 246.555 1444.13 249.78C1444.35 250.103 1444.52 250.46 1444.74 250.783C1453.88 264.167 1463.43 276.849 1471.29 290.867C1463.73 290.533 1456.13 290.994 1448.53 290.211C1438.58 289.174 1428.73 286.893 1419.31 283.518C1410.88 280.501 1402.4 276.849 1395.87 270.525C1392.43 267.196 1389.58 263.142 1387.88 258.638C1386.15 254.088 1386.39 249.562 1385.81 244.85C1385.76 244.332 1385.04 244.009 1384.74 244.562C1380.72 252.015 1384.82 262.75 1389.19 269.201C1394.67 277.31 1403.14 283.115 1411.96 287.078C1422.13 291.651 1433.28 294.381 1444.29 295.901C1453.89 297.226 1464.37 298.17 1473.91 295.809C1474.76 297.456 1475.72 299.023 1476.51 300.716C1483.16 314.884 1486.92 330.883 1493.31 345.258C1486.49 347.447 1479.62 349.532 1472.53 350.603C1460.75 352.377 1448.6 351.985 1436.97 349.44C1417.94 345.27 1389.99 332.438 1391.5 309.021C1391.56 308.065 1389.97 307.823 1389.81 308.79C1385.76 332.715 1410.6 347.493 1430.11 353.264C1450.16 359.184 1476.19 359.979 1495.94 350.522C1496.88 352.319 1497.61 354.243 1498.67 355.959C1500.45 358.85 1505.11 357.698 1505.11 354.208C1505.11 351.317 1504.84 348.415 1504.43 345.512C1504.65 345.351 1504.9 345.247 1505.12 345.086C1506.57 344.003 1505.83 341.365 1503.82 341.93C1502.75 336.205 1501.14 330.492 1499.15 324.882C1499.25 324.813 1499.35 324.859 1499.46 324.767C1515.16 309.896 1528.26 291.858 1536.25 271.643Z" fill="#003F03"/>
<path opacity="0.2" d="M1353.17 519.916C1345.5 523.51 1338.24 527.829 1330.98 532.148C1319.26 511.323 1300.46 495.162 1278.31 486.189C1266.91 481.57 1254.79 479.082 1242.49 478.909C1226.84 478.702 1211.64 484.415 1196.02 482.826C1194.42 482.664 1194.03 485.417 1195.64 485.648C1209.13 487.595 1222.21 483.851 1235.67 483.62C1248.12 483.402 1260.51 485.832 1272.19 490.094C1294.7 498.318 1313.72 514.502 1325.28 535.443C1318.06 539.67 1310.77 543.782 1302.93 547.008C1286.45 553.792 1269.28 558.814 1251.98 562.984C1249.57 563.571 1247.13 564.021 1244.71 564.562C1231.43 550.452 1217.6 536.318 1199.55 528.474C1184.74 522.047 1162.32 518.119 1148.93 529.522C1148.7 529.718 1148.96 530.064 1149.21 530.006C1157.76 527.956 1166.13 525.825 1175.02 526.643C1184.19 527.483 1193.11 530.478 1201.12 534.959C1215.19 542.815 1226.78 554.403 1237.81 566.071C1223.41 569.181 1208.96 572.015 1194.55 575.079C1176.83 578.845 1155.58 581.195 1139.57 589.822C1139.07 590.087 1139.29 590.928 1139.86 590.894C1149.34 590.433 1158.71 587.403 1168.04 585.63C1178.72 583.602 1189.44 581.921 1200.17 580.193C1201.78 579.939 1203.39 579.652 1205.01 579.387C1203.38 587.98 1199.4 596.284 1193.67 602.792C1190.35 606.582 1186.5 609.876 1182.2 612.491C1180.01 613.827 1177.72 614.991 1175.33 615.947C1172.91 616.914 1170.47 617.375 1168.28 618.792C1168 618.976 1168.01 619.506 1168.39 619.575C1173.18 620.543 1179.01 617.628 1183.22 615.474C1188.23 612.906 1192.83 609.473 1196.77 605.442C1204.07 597.978 1208.71 588.717 1210.34 578.5C1226.78 575.827 1243.22 573.051 1259.48 569.458C1265.99 568.018 1272.46 566.382 1278.89 564.631C1278.84 565 1278.59 565.23 1278.66 565.668C1281.01 582.139 1276.89 598.945 1268.69 613.274C1264.67 620.301 1259.59 626.67 1253.61 632.119C1247.22 637.959 1239.76 641.587 1232.58 646.241C1231.72 646.794 1232.3 647.969 1233.25 647.819C1241.67 646.517 1249.35 641.276 1255.87 636.012C1262.81 630.426 1268.75 623.618 1273.52 616.108C1283.12 601.007 1287.46 582.577 1285.15 564.804C1285.05 564.044 1284.62 563.652 1284.27 563.168C1293.76 560.415 1303.12 557.282 1312.28 553.55C1328.02 547.134 1346.63 539.186 1357.71 525.779C1360.44 522.496 1357.1 518.073 1353.17 519.916Z" fill="#003F03"/>
<path opacity="0.2" d="M1574.54 495.507C1574.01 494.033 1573.14 492.604 1572.31 491.291C1570.57 488.527 1568.45 485.981 1566.03 483.804C1563.64 481.65 1560.98 479.773 1558.1 478.333C1555.29 476.928 1551.56 475.131 1548.34 475.465C1547.9 474.44 1547.57 473.368 1547.12 472.343C1545.95 469.694 1544.61 467.344 1543.12 465.086C1544.24 465.19 1545.37 464.994 1546.2 464.153C1547.14 463.209 1547.75 461.942 1548.2 460.617C1548.71 460.249 1549.29 459.938 1549.67 459.419C1550.29 458.567 1550.83 457.645 1551.34 456.724C1552.29 454.962 1553.09 453.072 1553.65 451.137C1554.76 447.359 1554.98 443.155 1553.76 439.377C1551.73 433.134 1545.6 428.791 1538.99 429.033C1537.04 429.102 1535.31 429.839 1533.78 430.911C1533.77 430.819 1533.77 430.726 1533.77 430.634C1533.86 430.6 1533.97 430.588 1534.06 430.554C1535.31 429.955 1534.73 428.192 1533.55 427.962C1533.3 426.004 1533.01 424.057 1532.58 422.133C1532.4 421.304 1532.11 420.498 1531.89 419.668C1537.32 416.581 1540.66 409.981 1541.9 404.049C1542.56 400.916 1542.71 397.691 1542.28 394.512C1541.86 391.263 1540.68 388.626 1538.74 385.999C1538.47 385.642 1537.78 385.827 1537.95 386.333C1538.83 388.994 1539.33 391.943 1539.58 394.731C1539.83 397.576 1539.61 400.455 1538.91 403.231C1538.23 405.927 1537.12 408.495 1535.61 410.834C1534.31 412.849 1532.62 414.543 1530.91 416.213C1530.19 414.024 1529.36 411.859 1528.4 409.751C1526.64 405.835 1524.46 402.114 1521.92 398.647C1520.67 396.954 1519.38 395.191 1517.9 393.694C1516.4 392.173 1514.47 390.964 1512.69 389.789C1512.12 389.409 1511.28 390.192 1511.71 390.78C1514.1 393.959 1516.49 397.23 1518.72 400.524C1521.01 403.934 1522.99 407.574 1524.53 411.386C1526.01 415.038 1527.12 418.851 1527.87 422.709C1528.21 424.46 1528.42 426.234 1528.58 428.019C1527.68 428.054 1526.79 428.1 1525.89 428.054C1523.35 427.904 1520.85 427.363 1518.45 426.51C1513.75 424.852 1509.12 422.133 1505.69 418.505C1505.02 417.802 1503.8 418.724 1504.33 419.553C1505.83 421.903 1507.66 424.034 1509.78 425.854C1512.01 427.766 1514.49 429.056 1517.25 430.058C1518.75 430.6 1520.41 431.026 1522.11 431.371C1520.29 432.097 1518.98 433.952 1518.11 435.645C1517.24 437.303 1516.56 439.1 1516.22 440.932C1514.78 448.442 1517.47 456.079 1523.78 460.56C1526.88 462.76 1530.78 463.888 1534.55 463.992C1535.06 464.004 1535.61 463.958 1536.14 463.923C1536.55 464.948 1537.07 465.927 1537.47 466.941C1537.3 466.987 1537.17 466.906 1536.98 466.999C1526.5 472.343 1523.13 486.488 1527.95 496.717C1528.38 497.604 1529.81 496.982 1529.53 496.049C1526.71 486.511 1531.25 476.236 1539.02 470.477C1539.66 471.894 1540.16 473.334 1540.9 474.727C1543.59 479.807 1546.04 485.014 1548.23 490.335C1549 492.224 1549.61 494.194 1550.33 496.106C1549.91 496.67 1549.54 497.246 1549.26 497.742C1548.05 499.919 1547.46 502.338 1547.54 504.814C1547.7 509.491 1549.95 514.259 1554.33 516.344C1555.16 516.747 1555.83 515.619 1555.06 515.1C1551.74 512.854 1550.39 508.685 1550.9 504.814C1551.07 503.49 1551.61 502.269 1552.14 501.059C1554.61 508.109 1556.87 515.25 1558.71 522.438C1559.02 523.659 1561.12 523.451 1560.98 522.127C1560.01 513.349 1558.1 504.86 1555.7 496.44C1556.03 496.152 1556.34 495.864 1556.57 495.427C1557.19 494.275 1556.38 493.192 1555.2 493.042C1555.05 493.019 1554.91 493.111 1554.76 493.123C1554.26 491.522 1553.94 489.898 1553.4 488.296C1552.45 485.532 1551.27 482.86 1550.2 480.141C1552.12 480.66 1554.07 481.12 1555.92 481.892C1558.62 483.021 1561.21 484.564 1563.49 486.396C1565.76 488.227 1567.83 490.358 1569.54 492.731C1570.44 493.987 1571.14 495.323 1571.93 496.636C1572.72 497.926 1573.72 499.078 1574.5 500.391C1574.71 500.737 1575.34 500.621 1575.31 500.172C1575.15 498.64 1575.04 496.935 1574.54 495.507ZM1540.8 455.722C1540.79 455.814 1540.75 456.021 1540.73 456.183C1540.58 456.851 1540.39 457.507 1540.22 458.175C1539.68 458.221 1539.14 458.267 1538.57 458.337C1538.38 458.36 1538.18 458.313 1537.99 458.337C1537.84 458.164 1537.73 457.979 1537.58 457.807C1536.72 456.816 1535.16 457.311 1534.6 458.313C1534.46 458.302 1534.31 458.337 1534.17 458.313C1530.86 457.761 1528.08 456.286 1525.95 453.81C1525.19 452.923 1524.3 451.195 1523.97 450.158C1523.36 448.258 1523.29 447.624 1523.27 445.62C1523.27 445.182 1523.27 444.744 1523.3 444.307C1523.31 444.076 1523.34 443.846 1523.36 443.616C1523.5 442.763 1523.7 441.922 1523.97 441.105C1524.01 440.966 1524.46 439.838 1524.19 440.46C1524.36 440.068 1524.57 439.676 1524.78 439.308C1524.95 439.008 1525.13 438.72 1525.32 438.432C1525.58 438.421 1525.83 438.409 1526.1 438.421C1526.48 438.432 1526.86 438.467 1527.24 438.478C1527.32 438.49 1527.3 438.49 1527.36 438.49C1527.51 438.513 1527.67 438.536 1527.82 438.57C1528.55 438.72 1529.29 438.916 1530 439.158C1530.21 439.227 1530.42 439.308 1530.61 439.388C1530.61 439.388 1530.8 439.48 1530.97 439.561C1530.81 439.642 1530.62 439.676 1530.45 439.768C1529.06 440.598 1527.8 441.853 1527.09 443.316C1525.57 446.449 1526.25 450.135 1528.73 452.577C1529.39 453.234 1530.32 454.029 1531.26 454.19C1532.02 454.328 1532.88 454.006 1533.56 453.671C1533.82 453.545 1533.83 453.188 1533.66 452.992C1533.11 452.416 1532.87 451.679 1532.22 451.206C1531.87 450.965 1531.2 450.319 1530.98 449.985C1530.8 449.709 1530.64 449.409 1530.49 449.11C1530.4 448.914 1530.4 448.903 1530.47 449.076C1530.43 448.995 1530.41 448.914 1530.38 448.845C1530.32 448.661 1530.27 448.477 1530.22 448.281C1530.19 448.119 1530.15 447.958 1530.12 447.797C1530.2 448.212 1530.12 447.728 1530.12 447.636C1530.11 447.417 1530.12 447.198 1530.12 446.968C1530.12 446.553 1530.04 447.267 1530.13 446.829C1530.17 446.668 1530.2 446.507 1530.25 446.346C1530.26 446.288 1530.47 445.712 1530.36 445.954C1530.26 446.196 1530.52 445.654 1530.55 445.597C1530.63 445.447 1530.72 445.32 1530.81 445.171C1531.06 444.767 1530.59 445.389 1530.88 445.067C1531.03 444.906 1531.18 444.733 1531.34 444.583C1531.46 444.468 1531.59 444.364 1531.72 444.249C1531.38 444.595 1531.71 444.261 1531.81 444.192C1532.08 444.007 1532.5 443.696 1532.83 443.627C1532.86 443.616 1532.9 443.616 1532.92 443.604C1533.08 443.546 1533.24 443.5 1533.4 443.466C1533.51 443.443 1533.62 443.408 1533.73 443.397C1533.99 443.351 1533.94 443.351 1533.59 443.408C1533.66 443.351 1534 443.374 1534.08 443.374C1534.65 443.362 1535.14 443.42 1535.72 443.293C1535.82 443.27 1535.88 443.166 1535.97 443.132C1536.11 443.27 1536.26 443.397 1536.4 443.547C1536.7 443.881 1536.98 444.215 1537.27 444.56C1537.55 444.917 1537.55 444.906 1537.26 444.537C1537.37 444.675 1537.46 444.802 1537.56 444.94C1538.02 445.631 1538.48 446.323 1538.9 447.06C1539.06 447.348 1539.22 447.647 1539.36 447.947C1539.4 448.039 1539.58 448.442 1539.68 448.661C1540.19 449.986 1540.56 451.333 1540.8 452.727C1540.82 452.923 1540.86 453.176 1540.86 453.268C1540.88 453.648 1540.89 454.028 1540.9 454.397C1540.86 454.858 1540.83 455.284 1540.8 455.722ZM1536.21 433.664C1540.16 432.627 1545.01 434.389 1547.35 437.465C1549.51 440.298 1549.76 444.261 1548.99 447.624C1548.86 448.2 1548.53 448.718 1548.35 449.283C1547.92 447.589 1547.31 445.931 1546.52 444.33C1544.31 439.814 1540.6 436.129 1536.21 433.664Z" fill="#003F03"/>
<path opacity="0.2" d="M1502.19 471.572C1495.28 468.496 1485.85 469.429 1478.44 469.66C1476.41 469.729 1474.4 469.971 1472.39 470.132C1467.48 457.773 1459.18 447.383 1448.19 439.849C1442.61 436.025 1436.45 433.019 1430 430.969C1426.86 429.966 1423.63 429.206 1420.37 428.711C1417.1 428.204 1413.97 427.64 1410.8 428.792C1410.4 428.941 1410.17 429.633 1410.66 429.84C1413.41 431.026 1416.17 431.107 1419.1 431.648C1422.2 432.224 1425.27 433.042 1428.24 434.067C1434.2 436.117 1439.84 439.112 1444.96 442.775C1454.67 449.71 1462.59 459.5 1467.22 470.535C1462.93 471.042 1458.67 471.699 1454.43 472.563C1447.17 474.048 1440.04 476.087 1433.05 478.541C1424.52 464.569 1407.53 456.92 1391.39 460.836C1390.78 460.986 1390.88 462.058 1391.54 461.965C1406.06 460.03 1421.45 467.46 1429.24 479.842C1422.39 482.388 1415.44 485.106 1409.73 489.702C1409.37 489.99 1409.76 490.52 1410.14 490.428C1417.32 488.631 1424.11 485.556 1431.19 483.286C1431.28 483.471 1431.41 483.643 1431.5 483.828C1432.51 486.051 1435.62 484.311 1435 482.134C1441.58 480.268 1448.26 478.748 1455.02 477.723C1462.75 476.548 1470.6 475.949 1478.41 475.707C1480.99 475.626 1483.56 475.696 1486.14 475.742C1486.04 475.891 1485.88 475.96 1485.81 476.145C1483.5 482.319 1481.95 488.7 1479.13 494.713C1476.31 500.702 1472.69 506.335 1468.36 511.369C1464.11 516.322 1459.22 520.733 1453.82 524.408C1448.31 528.14 1442.2 530.743 1436.4 533.945C1436.16 534.072 1436.25 534.51 1436.54 534.487C1443.44 533.888 1449.62 530.847 1455.48 527.241C1461.41 523.602 1466.86 519.132 1471.62 514.041C1480.62 504.377 1489.77 490.393 1489.77 476.698C1489.77 476.294 1489.57 476.053 1489.43 475.776C1489.53 475.776 1489.62 475.776 1489.72 475.776C1493.69 475.926 1497.7 476.652 1501.61 475.811C1503.47 475.385 1504.01 472.378 1502.19 471.572Z" fill="#003F03"/>
<path opacity="0.2" d="M1626.68 399.35C1629.99 397.645 1633.35 396.021 1636.71 394.408C1637.24 394.777 1637.77 395.122 1638.23 395.433C1640.8 397.196 1643.75 398.474 1646.64 399.591C1652.54 401.884 1658.9 403.059 1665.22 403.232C1677.21 403.554 1690.64 400.283 1699.24 391.552C1699.47 391.31 1699.18 390.953 1698.89 391.102C1688.29 396.677 1677.33 400.237 1665.22 399.246C1659.52 398.774 1653.81 397.357 1648.59 395.007C1646.48 394.051 1644.52 392.842 1642.55 391.655C1646.57 389.812 1650.62 387.992 1654.69 386.322C1663.87 382.556 1674.15 377.775 1684.27 378.271C1685.53 378.328 1685.69 376.738 1684.85 376.128C1677.02 370.277 1665.58 375.402 1657.24 377.913C1646.69 381.093 1636.39 384.905 1626.44 389.639C1624.39 390.607 1622.41 391.724 1620.39 392.749C1619.7 389.651 1619.04 386.576 1619.22 383.293C1619.48 378.328 1621.04 373.444 1623.39 369.079C1628.02 360.497 1635.26 353.747 1642.31 347.17C1643.27 346.272 1641.86 344.912 1640.88 345.742C1632.75 352.676 1624.25 359.921 1619.26 369.574C1615.74 376.393 1612.87 387.209 1616.51 394.742C1610.1 398.117 1603.79 401.665 1597.69 405.547C1592.93 408.576 1588.28 411.744 1583.73 415.073C1582.98 415.614 1582.16 416.178 1581.34 416.743C1580.91 412.7 1580.35 408.68 1580.34 404.568C1580.33 399.016 1580.91 393.475 1582.05 388.038C1584.31 377.234 1588.81 366.671 1594.74 357.376C1595.08 356.834 1594.26 356.166 1593.83 356.673C1586.38 365.612 1581.42 375.794 1578.73 387.117C1577.4 392.657 1576.63 398.348 1576.45 404.038C1576.29 409.014 1576.31 414.554 1577.56 419.496C1575.17 421.362 1572.97 423.435 1571.71 425.969C1570.25 428.93 1572.67 432.615 1576.1 431.682C1580.65 430.438 1584.15 426.764 1587.83 423.953C1588.71 423.274 1589.65 422.675 1590.53 422.007C1615.39 438.962 1653.36 440.137 1677.4 421.108C1677.67 420.889 1677.32 420.532 1677.05 420.659C1663.55 426.902 1648.82 430.83 1633.88 430.197C1620.36 429.632 1607.13 425.324 1595.46 418.459C1597 417.376 1598.48 416.224 1600.04 415.176C1608.61 409.382 1617.51 404.095 1626.68 399.35Z" fill="#003F03"/>
<path opacity="0.2" d="M1512.61 451.944C1504.61 447.866 1499.81 438.087 1503.29 429.517C1503.88 428.066 1502.65 426.108 1501.18 425.797C1498.49 425.232 1496.89 422.975 1496.46 420.314C1496.01 417.584 1497.2 415.28 1498.82 413.126C1500.23 411.26 1497.88 408.3 1495.74 409.106C1486.41 412.631 1489.07 426.557 1496.82 430.577C1494.68 440.875 1500.62 452.785 1511.29 455.089C1513.09 455.503 1514.43 452.877 1512.61 451.944Z" fill="#003F03"/>
<path opacity="0.2" d="M1566.39 415.441C1566 411.894 1565.22 408.472 1564.05 405.097C1563.47 403.393 1562.9 401.481 1561.82 400.029C1560.74 398.59 1559.44 397.276 1558.16 396.009C1556.73 394.592 1554.25 396.021 1554.79 397.968C1555.24 399.615 1555.48 401.319 1555.93 402.955C1556.34 404.418 1557.14 405.777 1557.72 407.182C1558.93 410.2 1559.87 413.38 1560.68 416.536C1562.29 422.882 1562.67 429.436 1561.92 435.933C1561.74 437.569 1564.34 437.845 1564.75 436.313C1566.55 429.54 1567.15 422.433 1566.39 415.441Z" fill="#003F03"/>
<path opacity="0.2" d="M1522.92 502.672C1520.84 502.28 1519.85 499.631 1519.56 497.719C1518.98 493.883 1520.49 489.978 1520.03 486.097C1519.79 484.081 1519.15 482.295 1518.3 480.464C1517.58 478.897 1516.7 477.388 1516.76 475.603C1516.8 474.221 1517.13 472.873 1517.85 471.687C1518.26 471.019 1518.84 470.546 1519.28 469.913C1519.68 469.337 1519.78 468.738 1520.01 468.093C1520.09 467.874 1519.96 467.54 1519.74 467.436C1517.92 466.63 1516.7 467.102 1515.18 468.323C1513.58 469.613 1512.31 471.387 1511.64 473.334C1510.95 475.35 1511.1 477.665 1511.7 479.681C1512.24 481.489 1513.02 483.194 1513.45 485.014C1513.14 485.048 1512.83 485.095 1512.53 485.325C1510.85 486.615 1510.19 488.331 1509.19 490.151C1508.26 491.856 1507.26 493.538 1506.21 495.173C1504.12 498.433 1502.12 501.704 1499.72 504.745C1497.37 507.74 1494.8 510.562 1492.06 513.211C1490.68 514.548 1489.06 515.722 1487.73 517.105C1486.31 518.568 1485.2 520.203 1483.69 521.597C1483.18 522.069 1483.83 522.76 1484.39 522.507C1486.21 521.655 1488.27 521.044 1490.01 520.054C1491.72 519.075 1493.3 517.589 1494.8 516.333C1497.87 513.788 1500.76 511.011 1503.43 508.051C1506.12 505.091 1508.74 501.923 1510.88 498.537C1511.64 497.339 1512.3 496.083 1512.97 494.839C1512.7 496.89 1512.59 498.94 1513.14 501.048C1514.22 505.171 1517.67 508.662 1522.13 508.592C1525.4 508.569 1526.39 503.329 1522.92 502.672Z" fill="#003F03"/>
<path opacity="0.2" d="M1573.24 470.558C1572.3 468.254 1571.37 465.962 1570.42 463.658C1568.55 459.062 1566.66 454.466 1564.78 449.87C1564.34 448.788 1563.34 448.028 1562.12 448.362C1561.05 448.65 1560.22 449.916 1560.61 451.022C1562.24 455.687 1563.88 460.352 1565.52 465.018C1566.33 467.344 1567.15 469.683 1567.97 472.009C1568.74 474.209 1569.28 477.458 1571.14 478.967C1572.39 479.992 1574.9 479.888 1575.23 477.884C1575.64 475.269 1574.21 472.919 1573.24 470.558Z" fill="#003F03"/>
<path opacity="0.2" d="M1633.96 482.342C1629.71 482.607 1625.95 484.127 1621.85 485.141C1618.23 486.028 1614.6 487.018 1610.95 487.767C1607.12 488.55 1603.32 488.884 1599.43 489.126C1595.86 489.345 1591.79 489.529 1588.3 490.359C1584.61 491.234 1582.58 493.964 1581.9 497.558C1581.09 501.774 1580.51 506.036 1579.7 510.24C1578.88 514.444 1578.05 518.649 1577.23 522.853C1576.8 525.041 1576.34 527.241 1575.94 529.43C1575.65 530.997 1575.81 532.482 1576 534.014C1575.35 533.726 1574.64 533.611 1573.88 533.968C1564.98 538.15 1557.11 547.042 1550.84 554.437C1543.99 562.523 1538.11 571.415 1533.43 580.918C1528.86 590.179 1525.35 599.959 1523.12 610.037C1521.05 619.345 1519.68 630.817 1522.14 640.124C1522.28 640.654 1523.12 640.689 1523.24 640.124C1524.28 635.517 1524.43 630.852 1525.11 626.175C1525.85 621.199 1527 616.315 1528.12 611.42C1530.37 601.548 1533.83 591.953 1538.42 582.923C1542.89 574.145 1548.37 565.852 1554.78 558.376C1558.06 554.552 1561.59 550.935 1565.32 547.549C1569.04 544.174 1573.34 541.398 1576.84 537.816C1577.57 537.078 1577.58 536.284 1577.35 535.546C1578.34 534.118 1579.43 532.759 1580.04 531.135C1580.76 529.234 1581.23 527.207 1581.8 525.26C1582.93 521.528 1584.05 517.785 1585.18 514.053C1586.31 510.309 1587.49 506.6 1588.73 502.891C1589.01 502.027 1589.71 500.622 1589.77 499.712C1589.8 499.343 1589.83 499.32 1589.87 499.263C1591.15 499.228 1592.67 499.896 1593.91 500.161C1601.27 501.739 1608.99 500.956 1616.36 499.758C1620.15 499.136 1623.58 498.076 1627.13 496.59C1630.92 495.001 1634.5 493.526 1637.32 490.439C1639.92 487.606 1638.29 482.077 1633.96 482.342Z" fill="#003F03"/>
<path opacity="0.2" d="M1573.64 344.429C1569.96 342.425 1565.14 345.501 1562.21 347.597C1558.87 349.993 1555.95 352.884 1553.33 356.04C1550.07 359.968 1547.53 364.299 1545.31 368.826C1543.76 367.363 1542.15 365.935 1540.59 364.472C1542.76 362.617 1544.42 360.233 1546.02 357.883C1548.15 354.75 1550.16 351.525 1552.05 348.242C1555.84 341.642 1559.11 334.742 1561.89 327.658C1567.49 313.387 1570.39 298.873 1570.78 283.553C1570.79 282.92 1569.76 282.747 1569.65 283.404C1567.19 297.744 1562.95 312.292 1557.09 325.631C1554.22 332.173 1550.87 338.497 1547.09 344.556C1545.2 347.597 1543.19 350.557 1541.09 353.46C1539.42 355.752 1537.59 357.975 1536.23 360.452C1535.86 360.129 1535.52 359.784 1535.15 359.461C1532.49 357.169 1529.91 354.646 1527.07 352.596C1524.7 350.88 1521.61 348.369 1518.54 348.449C1517.76 348.472 1517.12 349.094 1517.11 349.889C1517.08 352.826 1519.41 355.591 1521.04 357.895C1523.18 360.889 1525.92 363.539 1528.36 366.269C1533.19 371.671 1538.23 376.808 1543.33 381.957C1546.43 385.079 1551.17 383.328 1552.54 379.526C1554.93 372.88 1558.83 366.821 1563.77 361.788C1566.79 358.701 1581.76 348.864 1573.64 344.429Z" fill="#003F03"/>
<path opacity="0.2" d="M1487.09 394.501C1484.27 385.171 1473.02 385.228 1465.5 388.35C1460.5 390.423 1455.92 393.591 1450.6 390.861C1446.3 388.649 1442.78 385.977 1437.8 385.47C1428.4 384.503 1420.1 390.688 1414.07 397.265C1407.29 404.672 1401.29 418.252 1389.17 416.329C1388.29 416.19 1387.33 417.296 1388.19 418.01C1394.7 423.378 1402.33 418.701 1407.7 413.806C1414.96 407.194 1420.11 398.06 1429.84 394.581C1439.97 390.953 1445.21 401.527 1454.74 402.091C1460.27 402.414 1464.79 399.638 1469.75 397.737C1473.27 396.39 1476.59 396.056 1479.15 399.131C1482.24 402.84 1488.4 398.843 1487.09 394.501Z" fill="#003F03"/>
<path opacity="0.2" d="M1521.68 536.284C1517.02 539.935 1513.03 544.508 1507.97 547.652C1505.95 548.908 1503.62 549.956 1501.23 550.141C1497.89 550.394 1494.72 548.804 1491.5 548.182C1485.91 547.1 1479.89 547.825 1474.87 550.578C1469.73 553.412 1466.37 557.317 1465.14 563.087C1464.97 563.917 1465.95 564.55 1466.58 563.928C1470.39 560.219 1475.85 557.178 1481.11 556.326C1487.67 555.266 1492.42 559.309 1498.59 560.381C1512.08 562.742 1523.18 551.454 1527.45 539.647C1528.77 536.019 1524.07 534.406 1521.68 536.284Z" fill="#003F03"/>
<path opacity="0.2" d="M1492.93 182.327C1492.48 181.475 1491 182.062 1491.35 182.995C1496.58 196.968 1497.53 213.048 1494.1 227.561C1492.42 234.691 1489.7 241.556 1485.96 247.868C1483.97 251.243 1481.7 254.446 1479.13 257.406C1477.08 259.767 1473.36 262.128 1472.77 265.285C1472.52 266.598 1473.38 268.372 1474.99 268.199C1478.68 267.819 1481.03 264.248 1483.26 261.541C1485.81 258.443 1488.14 255.16 1490.15 251.693C1494.25 244.632 1497.21 236.868 1498.89 228.874C1502.27 212.875 1500.54 196.864 1492.93 182.327Z" fill="#003F03"/>
<path opacity="0.2" d="M1359.63 529.626C1359.15 527.425 1355.66 527.425 1355.19 529.626C1354.06 534.843 1354.43 540.303 1354.15 545.613C1353.84 551.465 1353.32 557.305 1352.65 563.122C1351.26 575.343 1348.63 587.541 1344.17 599.025C1336.51 618.78 1322.9 636.403 1305.06 647.991C1304.42 648.406 1304.98 649.293 1305.64 648.982C1325.55 639.859 1339.39 622.443 1348 602.619C1352.92 591.296 1356.08 579.317 1358.01 567.142C1358.96 561.083 1359.56 555.013 1359.9 548.885C1360.23 542.607 1360.98 535.823 1359.63 529.626Z" fill="#003F03"/>
<path opacity="0.2" d="M1372.27 505.16C1367.25 505.207 1365.67 498.94 1366.48 494.92C1367.5 489.829 1370.13 485.199 1370.12 479.877C1370.1 474.728 1367.26 470.132 1367.25 464.995C1367.24 460.065 1368.88 454.525 1371.92 450.62C1373.39 448.742 1371.15 446.392 1369.28 447.97C1364.61 451.898 1361.71 457.139 1361.4 463.256C1361.38 463.486 1361.47 463.705 1361.47 463.935C1350.37 449.71 1335.18 438.491 1319.05 430.762C1300.24 421.742 1279.42 416.605 1258.54 418.609C1257.61 418.701 1257.6 419.98 1258.54 420.049C1278.89 421.57 1299.03 426.062 1317.2 435.565C1335.17 444.964 1349.43 458.544 1362.56 473.795C1362.81 474.095 1363.15 474.095 1363.45 474.221C1364.28 477.216 1364.94 480.222 1364.35 483.367C1363.24 489.184 1360.75 494.817 1363.01 500.691C1364.59 504.815 1367.93 508.075 1372.57 507.407C1373.87 507.234 1373.54 505.149 1372.27 505.16Z" fill="#003F03"/>
<path opacity="0.2" d="M1441.69 551.753C1439.96 551.431 1438.22 551.373 1436.51 551.05C1434.73 550.716 1433.05 550.071 1431.29 549.68C1427.78 548.896 1424.78 547.652 1421.74 545.717C1416.04 542.089 1411.28 536.191 1409.27 529.706C1408.25 526.447 1403.78 527.852 1404.27 531.089C1405.2 537.263 1408.09 542.596 1412.18 547.007C1411.27 552.341 1411.29 557.869 1410.34 563.214C1409.24 569.354 1407.5 575.389 1405.11 581.149C1400.07 593.289 1391.85 602.769 1383.6 612.767C1383.2 613.251 1383.69 614 1384.31 613.666C1395.75 607.319 1404.11 595.259 1409.73 583.671C1412.64 577.682 1414.93 571.381 1416.45 564.896C1417.38 560.968 1418.23 556.649 1418.4 552.398C1421.66 554.633 1425.33 556.395 1429.15 557.397C1433.14 558.457 1438.56 558.019 1442.27 556.211C1444.1 555.335 1443.73 552.133 1441.69 551.753Z" fill="#003F03"/>
<path opacity="0.2" d="M1367.89 403.9C1365.06 400.732 1360.04 399.074 1356.15 397.518C1351.82 395.791 1347.45 394.201 1343.01 392.761C1338.73 391.367 1334.38 390.043 1330 388.995C1325.68 387.958 1321.01 387.843 1316.59 387.555C1315.71 387.497 1315.7 388.695 1316.39 388.972C1320.62 390.642 1324.72 392.75 1329.02 394.201C1333.17 395.606 1337.3 397.058 1341.38 398.682C1345.45 400.306 1349.47 402.068 1353.44 403.969C1357.31 405.823 1361.56 408.427 1365.84 408.83C1368.53 409.072 1369.41 405.593 1367.89 403.9Z" fill="#003F03"/>
<path opacity="0.2" d="M1455.12 569.25C1454.3 568.766 1452.97 568.824 1452.34 569.607C1451.36 570.805 1450.61 571.968 1449.87 573.327C1449.18 574.595 1448.45 575.827 1447.69 577.048C1446.21 579.409 1444.68 581.771 1443.04 584.028C1441.44 586.24 1439.69 588.336 1437.81 590.329C1436.83 591.366 1435.71 592.31 1434.78 593.381C1433.85 594.464 1433.09 595.731 1432.2 596.848C1431.74 597.436 1432.14 598.657 1433.04 598.288C1434.37 597.758 1435.74 597.252 1437 596.584C1438.33 595.881 1439.5 594.717 1440.63 593.738C1442.86 591.815 1444.96 589.741 1446.91 587.541C1448.94 585.261 1450.8 582.888 1452.37 580.262C1453.94 577.647 1455.66 574.871 1456.19 571.841C1456.36 570.828 1456.07 569.803 1455.12 569.25Z" fill="#003F03"/>
<path opacity="0.2" d="M1375.09 403.197C1370.61 398.67 1366.98 393.245 1364.64 387.313C1363.49 384.375 1362.51 381.311 1361.78 378.247C1361.02 375.091 1360.6 371.866 1359.88 368.699C1359.35 366.337 1355.23 366.118 1354.88 368.699C1354.61 370.599 1354.38 372.361 1354.63 374.274C1354.86 375.99 1355.14 377.694 1355.53 379.376C1356.35 382.935 1357.61 386.31 1359.29 389.559C1362.51 395.79 1367.02 401.377 1372.44 405.835C1374.27 407.344 1376.82 404.948 1375.09 403.197Z" fill="#003F03"/>
<path opacity="0.2" d="M1449.47 480.407C1447.95 484.024 1446.66 487.687 1444.66 491.085C1442.62 494.552 1440.15 497.719 1437.28 500.542C1431.46 506.278 1424.4 509.526 1417.03 512.751C1416.24 513.097 1416.65 514.398 1417.47 514.364C1419.59 514.26 1421.57 514.064 1423.57 513.362C1425.58 512.659 1427.54 511.83 1429.42 510.874C1433.33 508.904 1436.95 506.381 1440.19 503.467C1443.41 500.588 1446.23 497.27 1448.6 493.676C1451 490.036 1453.19 485.959 1453.91 481.639C1454.41 478.656 1450.61 477.689 1449.47 480.407Z" fill="#003F03"/>
<path opacity="0.2" d="M1496.06 450.55C1493.09 444.756 1489.13 439.561 1484.55 434.931C1475.6 425.854 1464.3 419.173 1451.93 416.029C1450.85 415.752 1450.41 417.365 1451.47 417.699C1463.22 421.42 1473.69 428.423 1481.82 437.672C1485.77 442.176 1489.14 447.244 1491.98 452.52C1494.86 457.876 1496.39 463.658 1498.8 469.187C1499.45 470.673 1501.79 469.867 1501.75 468.393C1501.61 462.161 1498.87 456.021 1496.06 450.55Z" fill="#003F03"/>
<path opacity="0.2" d="M1632.5 461.551C1620.71 463.232 1608.15 465.686 1596.31 463.267C1586.79 461.32 1578.16 456.068 1572.43 448.154C1570.9 446.035 1567.89 447.809 1568.95 450.193C1573.37 460.18 1583.88 465.467 1594.24 467.31C1607.36 469.625 1620.33 466.584 1632.89 462.944C1633.79 462.668 1633.38 461.424 1632.5 461.551Z" fill="#003F03"/>
<path opacity="0.2" d="M1518.69 406.779C1514.96 405.789 1511.37 404.729 1508.12 402.563C1504.95 400.455 1502.35 397.599 1500.52 394.282C1499.53 392.496 1496.82 394.086 1497.79 395.883C1499.83 399.684 1502.79 402.909 1506.34 405.363C1509.81 407.77 1514.05 409.647 1518.33 409.613C1519.92 409.59 1520.28 407.194 1518.69 406.779Z" fill="#003F03"/>
<path opacity="0.08" d="M1611.32 672.469C1610 670.718 1608.99 668.806 1608.53 666.583C1609.3 660.27 1611.24 653.889 1613.23 648.326C1614.26 645.423 1615.2 642.578 1615.9 639.767C1617.94 634.342 1620.07 628.87 1621.23 623.307C1621.65 621.337 1618.81 619.863 1617.81 621.867C1617.35 622.789 1617.06 623.802 1616.66 624.747C1616.18 622.351 1615.2 619.978 1613.94 617.605C1615.72 615.221 1617.62 612.929 1619.18 610.383C1624.24 602.17 1629.48 592.644 1630.77 582.98C1630.94 581.667 1628.94 581.275 1628.35 582.324C1622.94 592.184 1619.31 602.562 1612.8 611.904C1612.38 612.526 1611.83 613.021 1611.4 613.631C1604.11 604.198 1593.21 599.141 1583.31 592.967C1583.27 592.944 1583.22 592.898 1583.18 592.875C1583.13 592.126 1583.2 591.366 1583.13 590.617C1582.97 588.82 1580.16 588.106 1579.74 590.156C1579.72 590.249 1579.72 590.364 1579.7 590.456C1576.1 587.807 1572.77 584.593 1570.11 581.057C1574.95 576.99 1580.2 573.362 1586.24 570.54C1588.01 569.711 1586.76 566.797 1584.9 567.384C1578.52 569.4 1572.79 572.913 1567.68 577.278C1564.11 570.77 1563.23 563.364 1568.11 555.75C1569.11 554.195 1566.91 552.64 1565.62 553.827C1557.84 561.003 1558.93 572.187 1563.81 580.815C1557.8 586.874 1552.87 594.13 1549.15 601.445C1545.76 608.091 1543.46 615.071 1541.51 622.155C1540.4 620.485 1539.37 618.711 1538.52 616.73C1531.96 601.422 1535.22 584.593 1544.92 571.462C1545.91 570.125 1543.79 568.593 1542.67 569.722C1532.75 579.571 1529.36 594.084 1531.62 607.699C1532.9 615.44 1535.95 621.66 1540.19 627.074C1540.12 627.362 1540.03 627.627 1539.96 627.915C1539.16 627.373 1538.33 626.855 1537.38 626.486C1530.28 623.71 1522.71 628.444 1515.8 624.528C1509.18 620.784 1505.79 612.549 1504.42 605.43C1500.99 587.599 1506.95 570.31 1515.24 554.748C1516.05 553.228 1513.98 551.419 1512.75 552.825C1501.75 565.46 1497.41 583.026 1498.79 599.613C1499.79 611.593 1504.91 627.177 1518.15 630.403C1525.25 632.13 1533.77 628.318 1538.84 633.017C1537.04 642.002 1535.8 651.125 1534.65 660.201C1534.57 660.846 1535.66 660.996 1535.78 660.351C1537.27 652.173 1538.85 643.856 1540.78 635.643C1541.14 636.346 1541.56 636.957 1541.85 637.855C1545.08 647.842 1538.84 657.045 1534.81 665.742C1530.25 675.59 1527.7 690.461 1539.41 696.45C1540.22 696.865 1540.94 695.679 1540.13 695.206C1522.52 684.886 1542.03 663.392 1545.92 651.217C1548.1 644.421 1547.3 635.229 1542.2 629.85C1542.25 629.688 1542.31 629.539 1542.34 629.377C1546.19 633.731 1550.65 637.694 1555.69 641.483C1562.77 646.805 1570.29 652.737 1572.07 661.63C1568.09 669.785 1565.85 678.562 1566.65 687.374C1565.82 689.666 1565.06 691.97 1564.53 694.273C1561.09 709.42 1566.37 724.786 1578.07 734.888C1578.63 735.372 1579.43 734.589 1578.89 734.07C1571.66 727.113 1567.22 718.175 1566.49 708.119C1565.81 699.042 1569.41 691.094 1572.64 682.858C1575.5 675.555 1577.03 668.345 1575.99 661.514C1576.28 660.938 1576.43 660.351 1576.74 659.787C1577.36 658.646 1578.14 657.644 1578.83 656.561C1582.92 666.26 1591.95 670.706 1602.76 674.45C1603.81 674.818 1604.82 675.302 1605.86 675.705C1607.41 683.089 1611.45 689.689 1618.55 693.352C1618.16 694.02 1617.85 694.607 1617.39 695.425C1612.57 703.834 1606.9 712.173 1603.09 721.1C1599.22 730.142 1601.01 747.743 1614.83 743.988C1615.15 743.907 1615.07 743.435 1614.75 743.423C1605.51 743.066 1602.73 733.034 1604.92 725.8C1606.17 721.688 1608.74 717.864 1610.95 714.235C1614.67 708.119 1618.66 702.06 1622.22 695.828C1622.16 709.95 1606.82 725.259 1616.8 738.804C1617.24 739.392 1618.14 738.896 1617.79 738.217C1609.89 722.425 1628.54 706.656 1624.83 690.403C1627.37 681.81 1619.16 675.774 1611.32 672.469ZM1577.53 620.289C1576.99 629.7 1575.59 639.56 1576.78 648.971C1576.93 650.192 1577.23 651.251 1577.5 652.357C1576.56 653.739 1575.61 655.11 1574.76 656.55C1573.56 653.29 1571.73 650.122 1568.92 647.128C1561.06 638.765 1550.76 633.605 1543.68 624.989C1545.78 617.916 1548.18 610.959 1551.51 604.393C1555.42 596.699 1560.29 590.007 1566.14 584.316C1566.22 584.42 1566.28 584.535 1566.36 584.639C1569.86 589.131 1574.25 592.506 1578.95 595.478C1577.91 603.668 1577.99 612.157 1577.53 620.289ZM1581.03 644.386C1580.39 629.043 1583.39 613.447 1583.27 598.081C1590.19 602.067 1597.42 605.683 1603.39 610.924C1605.5 612.779 1607.19 614.818 1608.68 616.949C1602.72 624.459 1596.17 631.278 1589.29 638.085C1586.56 640.781 1583.91 643.833 1581.38 647.047C1581.29 646.137 1581.07 645.319 1581.03 644.386ZM1605.21 669.358C1605.22 669.681 1605.21 669.992 1605.23 670.315C1601.2 668.99 1597.16 667.711 1593.4 665.776C1587.18 662.574 1583.78 657.736 1582.17 651.747C1587.3 645.216 1593.52 639.64 1599.61 633.893C1603.81 629.942 1607.66 625.714 1611.27 621.268C1612.92 624.954 1613.67 628.974 1613.31 633.328C1612.31 636.346 1611.36 639.398 1610.34 642.347C1608.06 648.878 1604.58 655.916 1604.12 662.885C1603.94 665.385 1604.44 667.458 1605.21 669.358ZM1618.91 692.799C1612.51 688.825 1609.58 683.146 1608.63 676.823C1609.63 677.249 1610.67 677.56 1611.65 678.044C1614.25 680.532 1617.04 682.974 1619.16 685.945C1619.59 686.544 1619.86 687.155 1620.2 687.765C1620.47 689.666 1619.82 691.163 1618.91 692.799Z" fill="#003F03"/>
<path opacity="0.08" d="M1720.02 642.313C1720.79 637.452 1720.49 632.649 1718.16 628.064C1717.33 626.429 1714.56 627.177 1714.67 629.009C1714.84 631.704 1714.91 634.342 1714.8 636.957C1705.41 628.894 1692.53 623.411 1688.22 611.754C1696.31 607.826 1704.71 605.845 1711.92 612.238C1713.57 613.7 1715.96 611.374 1714.36 609.796C1706.72 602.274 1696.35 603.483 1687.08 606.974C1686.97 606.179 1686.73 605.465 1686.69 604.612C1686.24 594.764 1690.15 583.13 1687.15 573.385C1688.28 570.494 1688.69 567.499 1688.78 564.481C1689.56 564.332 1690.37 564.263 1691.15 564.09C1693.56 563.537 1695.97 562.765 1698.29 561.844C1699.55 562.408 1700.84 562.903 1702.06 563.548C1706.37 568.997 1711.65 573.408 1718.76 575.436C1720.44 575.908 1721.65 573.305 1719.98 572.544C1719.27 572.222 1718.7 571.761 1718.03 571.404C1718.02 571.381 1718.05 571.369 1718.03 571.346C1714.81 568.536 1711.37 565.933 1707.76 563.618C1706.38 562.143 1705.31 560.404 1704.12 558.768C1707.35 556.557 1710.03 553.688 1711.37 549.68C1711.5 549.277 1710.93 548.943 1710.64 549.265C1708.13 552.064 1705.2 554.241 1702.05 556.027C1695.92 546.524 1691.84 535.293 1686.02 525.56C1681.52 518.038 1675.73 511.611 1667.54 508.098C1663.21 506.243 1658.58 505.494 1654.05 505.932C1648.47 502.523 1642.37 500.253 1634.87 500.875C1631.16 501.186 1627.65 502.189 1624.2 503.444C1623.48 502.845 1622.61 502.419 1621.97 501.728C1620.46 500.092 1619.57 498.042 1617.68 496.821C1616.45 496.026 1614.9 497.086 1614.87 498.434C1614.8 501.106 1616.77 503.605 1618.86 505.586C1614.02 507.948 1609.45 510.943 1605.12 514.064C1600.5 517.393 1595.99 520.895 1591.2 523.982C1586.18 527.218 1580.62 529.073 1575.49 532.022C1573.94 532.92 1574.55 535.616 1576.44 535.512C1585.99 534.959 1595 527.184 1602.3 521.667C1608.62 516.886 1615.27 511.899 1622.56 508.524C1625.38 510.54 1628.45 512.164 1631.68 513.477C1640.33 517.002 1649.64 518.66 1657.9 523.176C1666.93 528.106 1674.61 535.431 1679.93 544.243C1681.81 547.353 1683.34 550.843 1684.56 554.426C1679.48 553.631 1674.26 553.539 1668.94 554.552C1663.75 555.554 1658.77 557.328 1653.88 559.355C1649.76 558.135 1646.71 555.52 1647.02 549.887C1647.11 548.252 1644.49 547.434 1643.81 549.012C1641.3 554.783 1644.57 558.814 1649.28 561.314C1647.55 562.086 1645.82 562.88 1644.11 563.664C1641.18 565.023 1634.96 568.398 1628.86 570.506C1628.81 570.402 1628.74 570.344 1628.7 570.241C1627.34 566.797 1627.87 562.857 1626.28 559.574C1625.41 557.789 1622.87 558.469 1622.33 560.093C1621.19 563.491 1622.4 568.421 1623.71 571.888C1618.44 572.855 1614.06 572.003 1613.25 566.474C1612.97 564.62 1610.02 564.758 1609.64 566.474C1607.91 574.238 1616.41 577.831 1622.9 576.633C1623.93 576.449 1624.93 576.046 1625.94 575.781C1627.45 577.947 1629.3 579.847 1631.85 580.803C1641.3 584.363 1649.83 575.804 1657.34 571.496C1663.33 568.064 1669.99 567.015 1676.72 566.209C1679.7 567.603 1682.14 570.01 1683.56 574.307C1683.97 575.551 1684.1 576.806 1684.3 578.073C1684.29 578.096 1684.27 578.131 1684.26 578.154C1684.18 578.327 1684.26 578.465 1684.39 578.534C1685.32 585.077 1684.01 591.757 1683.47 598.312C1683.17 601.94 1683.38 605.223 1683.99 608.264C1682.12 609.082 1680.3 609.934 1678.61 610.832C1672.61 614.012 1665.75 617.536 1659.12 618.481C1656.79 614.979 1654.97 611.132 1653.92 607.054C1652.06 599.798 1653.95 593.958 1654.65 586.862C1654.83 584.996 1652.31 584.743 1651.43 585.987C1645.16 594.891 1648.73 609.174 1654.06 618.573C1649.86 618.158 1645.84 616.384 1642.36 612.169C1640.8 610.279 1637.5 612.307 1638.27 614.553C1641.17 623.054 1649.96 625.415 1658.41 624.724C1666.37 634.088 1676.56 637.164 1688.89 638.443C1694.57 639.03 1700.9 640.159 1703.08 646.414C1704.6 650.756 1703.12 655.652 1701.77 659.844C1699.39 667.331 1695.87 674.381 1695.75 682.386C1695.72 683.642 1695.84 684.886 1695.94 686.118C1695.22 688.779 1694.62 691.474 1694.19 694.239C1692.45 705.596 1689.61 737.215 1707.48 738.183C1708.01 738.217 1708.01 737.503 1707.6 737.33C1697.98 733.31 1697.22 720.812 1697.32 711.92C1697.38 707.163 1697.89 702.383 1698.7 697.66C1701.86 705.239 1707.47 711.678 1714.96 715.813C1715.29 715.998 1715.55 715.525 1715.25 715.318C1707.24 709.766 1701.87 701.357 1699.81 692.189C1700.76 688.065 1701.9 683.987 1703.35 680.048C1707.06 670.038 1715.93 658.024 1719.16 646.125C1724.07 652.069 1726.67 658.934 1722.76 666.79C1722.42 667.458 1723.33 667.988 1723.75 667.377C1729.45 658.923 1725.93 649.524 1720.02 642.313ZM1671.11 513.35C1675.82 516.84 1679.34 521.54 1682.34 526.574C1673 521.874 1665.48 513.753 1657.01 507.798C1662.03 508.316 1666.96 510.286 1671.11 513.35ZM1667.39 524.523C1659.51 518.28 1650.62 514.917 1641.22 511.703C1636.78 510.182 1632.29 508.708 1628.18 506.393C1630.16 505.794 1632.11 505.114 1634.2 504.861C1639.52 504.204 1644.29 505.195 1648.76 507.073C1647.44 507.545 1646.11 507.982 1644.86 508.743C1644.22 509.134 1644.78 510.079 1645.43 509.733C1647.15 508.835 1648.93 508.42 1650.72 508.063C1661.9 513.5 1671.45 523.913 1683.27 528.209C1684.85 531.031 1686.34 533.911 1687.66 536.779C1690.79 543.552 1694 551.12 1698.14 557.87C1697.85 557.985 1697.57 558.112 1697.28 558.227C1694.19 556.902 1691.06 555.727 1687.8 554.99C1684.86 543.022 1676.26 531.561 1667.39 524.523ZM1684.67 557.328C1685 557.386 1685.3 557.524 1685.62 557.582C1685.92 558.722 1686 559.885 1686.2 561.037C1683.18 561.44 1680.15 561.751 1677.11 562.005C1674.07 560.818 1670.72 560.381 1667.31 560.369C1665.6 560.369 1663.62 560.392 1661.59 560.335C1669.01 557.731 1676.72 556.119 1684.67 557.328ZM1639.28 575.77C1636.17 576.576 1633.51 575.827 1631.47 574.065C1638.42 571.346 1645.14 567.407 1651.65 564.389C1652.49 563.998 1653.36 563.675 1654.21 563.295C1656.82 564.032 1659.46 564.424 1661.59 564.401C1661.82 564.401 1662.05 564.401 1662.27 564.389C1662.02 564.47 1661.74 564.493 1661.49 564.573C1653.51 567.061 1647.32 573.685 1639.28 575.77ZM1713.42 645.55C1711.6 651.562 1708.55 657.137 1705.65 662.678C1703.69 666.421 1701.9 670.234 1700.25 674.104C1700.43 673.448 1700.53 672.78 1700.75 672.135C1704.33 661.768 1713.3 646.39 1701.4 637.901C1696.43 634.353 1690.18 634.319 1684.35 633.731C1676.73 632.971 1670.05 630.276 1664.45 624.954C1664.12 624.632 1663.84 624.263 1663.52 623.929C1665.72 623.422 1667.85 622.789 1669.68 621.959C1674.39 619.84 1679.91 616.096 1685.67 613.021C1688.18 619.437 1692.66 624.816 1699.27 629.608C1703.54 632.706 1709.26 636.496 1714.2 640.919C1713.97 642.463 1713.89 644.006 1713.42 645.55Z" fill="#003F03"/>
<path opacity="0.08" d="M1560.13 269.708C1557.34 255.517 1553.36 240.969 1544.75 229.093C1534.14 214.476 1511.47 204.028 1494.68 212.702C1493.82 212.091 1493.09 211.354 1492.2 210.801C1484.87 206.182 1467.57 198.338 1460.85 207.76C1457.54 212.391 1459.59 218.876 1461.38 223.622C1463.36 228.897 1465.73 234 1467.64 239.298C1468.52 241.729 1469.35 244.182 1470.14 246.647C1472.2 253.052 1472.35 254.146 1469.79 261.403C1467.06 269.109 1467.69 268.901 1461.25 271.539C1458.11 272.818 1455.03 273.854 1451.67 274.442C1446.24 275.398 1440.38 275.237 1435 273.693C1432.22 266.863 1430.91 259.456 1429.37 252.291C1427.52 243.745 1424.79 234.921 1419.68 227.768C1423.16 225.476 1426.54 223.046 1429.62 220.224C1444.73 206.355 1452.27 176.579 1429.88 165.222C1427.97 164.254 1425.53 166.904 1427.44 168.39C1437.37 176.188 1438.82 190.344 1431.56 199.928C1430.78 195.873 1427.35 192.59 1422.89 190.874C1414.1 187.488 1404.6 190.943 1400.43 179.206C1397.92 172.122 1399.15 163.943 1400.56 156.813C1400.63 156.456 1400.11 156.307 1400.01 156.664C1397.59 164.542 1394.91 174.61 1398.4 182.627C1399.76 185.737 1402.09 188.397 1405.04 190.091C1410.38 193.155 1433.01 192.774 1427.59 204.143C1426.67 206.079 1428.85 207.68 1430.48 206.367C1436.38 201.632 1439.42 194.767 1439.87 187.741C1440.27 192.487 1439.57 197.428 1437.89 201.932C1434.18 211.895 1425.93 218.968 1417.01 224.727C1415.68 223.253 1414.44 221.698 1412.83 220.454C1391.77 204.166 1368.71 229.024 1365.39 249.515C1363.59 260.596 1366.01 271.389 1372.07 280.8C1377.41 289.082 1385.46 296.454 1390.74 305.07C1382.72 310.679 1376.42 318.305 1374.23 328.487C1372.06 338.543 1374.6 347.919 1381.2 354.381C1380.18 356.673 1379.31 359.012 1378.82 361.442C1376.56 372.869 1380.91 385.067 1389.06 393.222C1408.16 412.285 1440.49 398.739 1444.76 373.479C1444.91 372.581 1443.57 372.177 1443.37 373.099C1440.04 387.889 1426.26 399.304 1410.8 398.486C1396.2 397.703 1383.95 383.719 1383.18 369.459C1382.95 365.209 1383.86 361.35 1385.27 357.676C1386.85 358.701 1388.54 359.634 1390.41 360.394C1406.44 366.856 1430.83 368.653 1443.71 355.084C1453.39 344.878 1454.96 329.869 1454.42 315.828C1458.02 325.366 1459.98 335.26 1460.25 345.8C1460.43 353.287 1460.49 362.007 1467.33 366.787C1473.76 371.268 1480.07 370.427 1485.78 367.27C1503.3 365.808 1520.12 349.186 1526.09 334.281C1532.78 317.568 1528.74 300.554 1520.97 285.292C1527.27 284.302 1535.41 285.235 1540.03 286.824C1548.91 289.9 1555.27 297.168 1555.24 306.798C1555.22 317.717 1550 327.255 1554.5 337.944C1555.63 340.639 1560.1 339.453 1558.95 336.723C1555.14 327.681 1558.85 318.766 1559.67 309.643C1559.99 314.031 1560.32 318.27 1560.74 322.267C1561 324.824 1564.57 324.882 1564.77 322.267C1566.06 304.793 1563.49 286.847 1560.13 269.708ZM1512.73 245.542C1514.92 253.42 1515.45 262.958 1512.25 270.825C1508.18 264.847 1503.82 259.064 1499.49 253.282C1494.24 246.279 1486.75 238.676 1487.97 229.496C1488.7 224.082 1491.26 220.488 1494.82 218.231C1503.32 225.223 1509.8 235.013 1512.73 245.542ZM1485.6 361.983C1482.66 362.006 1479.86 361.246 1477.35 359.403C1468.59 352.999 1477.46 343.104 1480.5 335.444C1482.51 330.365 1483.03 325.227 1481.42 319.952C1477.72 307.846 1465.87 301.2 1455.73 295.164C1455.56 295.06 1455.4 294.945 1455.23 294.853C1456.72 293.689 1458.01 292.296 1458.83 290.718C1465.03 290.188 1471.24 289.865 1477.39 289.923C1486.81 290.003 1496.97 289.98 1505.02 285.488C1502.56 286.951 1500.62 289.036 1499.93 292.157C1497.76 301.879 1507.97 310.576 1508.49 320.148C1509.2 333.233 1499.69 350.027 1490.16 358.758C1488.7 360.094 1487.16 361.131 1485.6 361.983ZM1472.39 270.387C1487.12 257.855 1467.47 232.664 1464.12 218.53C1461.76 208.59 1471.44 207.277 1478.82 209.419C1483.1 210.663 1487.06 212.69 1490.77 215.144C1489.33 216.226 1487.93 217.424 1486.63 218.853C1477.92 228.448 1482.8 239.39 1489.46 248.628C1496.02 257.751 1503.13 266.552 1509.35 275.928C1508.89 276.561 1508.49 277.218 1507.95 277.805C1498.99 287.723 1484.08 285.396 1472.14 285.523C1468.09 285.569 1463.93 285.868 1459.78 286.168C1459.65 284.832 1459.23 283.484 1458.28 282.136C1456.95 280.27 1455.26 279.13 1453.42 278.37C1460.4 277.425 1467.09 274.891 1472.39 270.387ZM1450.56 286.133C1450.95 286.41 1451.1 286.64 1451.42 286.916C1449.31 287.147 1447.21 287.561 1445.1 287.849C1443.27 286.294 1441.61 284.555 1440.09 282.655C1440.86 282.401 1441.58 282.021 1442.38 281.848C1446.59 280.109 1449.32 281.537 1450.56 286.133ZM1422.75 246.82C1421.18 243.675 1419.25 240.681 1416.35 238.135C1415.09 237.041 1413.4 237.547 1412.84 239.068C1407.11 254.376 1413.54 266.091 1424.49 272.737C1425.04 276.354 1425.81 279.902 1427.05 283.288C1416.83 286.594 1408.46 285.154 1400.36 275.87C1395.81 270.664 1389.27 261.955 1387.98 255.033C1385.73 242.973 1405.49 236.442 1413.32 231.823C1414.01 231.42 1414.67 230.947 1415.36 230.533C1418.92 235.324 1421.15 240.934 1422.75 246.82ZM1423.71 267.3C1417.34 261.31 1414.15 252.579 1415.87 243.952C1421.4 250.552 1422.66 258.845 1423.71 267.3ZM1377.86 280.489C1370.14 269.408 1367.53 256.415 1372.06 243.422C1377.21 228.655 1394.72 212.656 1409.92 224.75C1410.95 225.568 1411.82 226.49 1412.7 227.4C1410.28 228.839 1407.86 230.222 1405.5 231.523C1398 235.681 1386.07 240.116 1383.82 249.608C1381.81 258.097 1389.82 268.728 1394.45 274.995C1399.3 281.549 1405.59 287.734 1413.89 289.347C1418.97 290.337 1423.62 289.266 1428.39 287.435C1428.5 287.389 1428.62 287.331 1428.73 287.285C1428.78 287.366 1428.8 287.469 1428.85 287.55C1429.39 288.529 1429.99 289.462 1430.63 290.337C1421.78 292.238 1413.06 294.553 1404.95 297.64C1401.39 298.988 1397.91 300.612 1394.63 302.524C1389.73 294.726 1383.11 288.022 1377.86 280.489ZM1378.85 342.851C1374.42 328.487 1382.13 317.118 1393 309.32C1393.99 311.428 1394.86 313.594 1395.37 315.909C1398.32 329.029 1389.21 339.177 1383.2 350.223C1381.23 348.08 1379.71 345.638 1378.85 342.851ZM1464.86 350.188C1464.52 344.648 1464.65 339.165 1463.88 333.648C1462.32 322.486 1458.52 312.039 1453.16 302.179C1452.14 300.301 1448.72 301.038 1448.95 303.319C1450.51 318.881 1452.25 339.603 1440.5 351.916C1429.86 363.066 1401.64 363.988 1387.06 353.563C1390.34 347.032 1394.91 340.95 1397.86 334.246C1401.65 325.642 1401.81 316.784 1397.9 308.203C1397.66 307.673 1397.3 307.212 1397.03 306.694C1402 303.711 1407.31 301.338 1412.35 299.783C1419.56 297.56 1426.99 295.809 1434.49 294.3C1438.7 297.675 1444.02 299.069 1449.77 297.514C1458.06 302.593 1467.08 306.809 1472.85 314.849C1483.24 329.328 1469.29 338.094 1468.37 352.1C1468.12 355.982 1469.07 359.588 1471.09 362.364C1467.65 360.175 1465.21 356.155 1464.86 350.188ZM1516.33 287.584C1524.3 302.87 1527.52 320.632 1519.28 336.527C1515.59 343.646 1505.65 354.542 1495.37 359.449C1498.78 355.74 1501.73 351.674 1503.88 348.184C1508.76 340.271 1512.96 331.24 1513.07 321.76C1513.13 317.429 1512.24 313.536 1510.6 309.527C1509.62 307.178 1507.65 304.989 1507.01 302.559C1505.23 299.967 1505.9 297.283 1509.01 294.484C1508.97 289.416 1511.14 286.893 1515.48 286.928C1515.58 286.87 1515.77 286.859 1515.88 286.813C1516.02 287.066 1516.19 287.32 1516.33 287.584ZM1547.27 285.108C1538.75 280.028 1528.47 280.005 1518.94 281.595C1517.69 279.36 1516.39 277.172 1515.02 275.018C1520.28 264.927 1519.62 252.05 1516.03 241.591C1512.75 231.996 1506.96 223.126 1499.37 216.307C1510.09 213.128 1525.4 217.701 1532.82 223.955C1553.5 241.395 1556.9 272.749 1558.96 300.428C1557.34 293.931 1553.13 288.61 1547.27 285.108Z" fill="#003F03"/>
<path opacity="0.08" d="M1444.01 585.249C1442.94 583.348 1440.46 584.42 1440.25 586.263C1439.92 589.154 1439.84 591.354 1437.66 593.589C1435.91 595.385 1433.65 596.376 1431.22 596.883C1425.95 597.977 1420.19 596.987 1414.89 596.572L1397.54 595.213C1394.27 594.959 1390.91 594.775 1387.58 594.453C1387.68 594.188 1387.85 593.992 1387.96 593.727C1391.89 583.901 1390.01 572.694 1384.43 564.446C1390.78 557.616 1400.31 553.055 1409.26 557.731C1410.09 558.169 1410.77 556.994 1409.98 556.487C1402.23 551.43 1392.04 553.193 1385.09 558.814C1384.07 559.643 1383.25 560.691 1382.34 561.647C1377.51 556.072 1370.76 552.433 1362.69 552.847C1363.76 529.315 1354.36 506.012 1336.56 490.29C1334.59 488.55 1332.25 486.984 1329.77 485.509C1332.66 475.995 1333.83 465.951 1332.89 456.033C1332 446.714 1330.09 433.491 1320.75 428.722C1317.83 427.236 1314.73 426.822 1311.61 427.029C1314.93 422.998 1318.52 419.242 1321.89 415.798C1323.06 414.589 1323.26 412.308 1321.89 411.122C1314.03 404.326 1305.48 400.709 1295.56 399.684C1295.71 399.269 1295.96 398.901 1296.13 398.486C1296.6 398.048 1296.89 397.484 1296.92 396.85C1303.55 383.109 1319.5 374.4 1334.18 383.005C1352.18 393.567 1345.62 410.039 1343.27 426.488C1341.47 439.008 1351.79 457.692 1366.23 448.546C1369.67 446.369 1366.5 440.898 1363.04 443.075C1352.2 449.917 1348.9 431.74 1349.73 426.211C1350.33 422.237 1351.85 418.379 1352.68 414.439C1353.72 409.532 1354.34 404.648 1353.4 399.672C1351.44 389.282 1343.99 380.217 1334.4 375.84C1316.21 367.535 1297 378.801 1289.93 395.883C1267.74 400.962 1248.19 419.219 1238.75 439.319C1236.93 443.19 1234.38 448.684 1233.07 454.213C1223.97 465.755 1218.02 479.554 1216.09 494.102C1211.8 490.819 1207.58 487.709 1203.56 484.853C1201.56 483.436 1199.64 485.774 1199.92 487.652C1202.2 503.766 1205.66 519.581 1209.82 535.189C1205.47 540.257 1201.61 545.487 1198.44 550.267C1197.91 551.073 1198.63 552.029 1199.48 552.075C1204.67 552.386 1209.25 551.327 1213.67 548.965C1218.77 565.714 1224.79 582.174 1231.97 598.254C1222.46 596.226 1213.19 597.632 1203.54 600.085C1194.93 602.274 1185.88 605.453 1176.86 604.612C1161.96 603.241 1149.72 587.829 1162.26 575.47C1169.95 567.89 1181.46 565.806 1188.51 557.201C1194.09 550.394 1196.62 541.409 1196.28 532.701C1195.78 520.065 1184.73 497.258 1169.3 507.325C1159.8 513.522 1152.98 528.52 1148.12 538.322C1141.68 551.304 1137.61 565.264 1134.88 579.455C1134.61 580.895 1136.74 581.517 1137.11 580.066C1140.79 565.598 1146.15 551.857 1153.12 538.645C1155.92 533.335 1158.93 528.128 1162.3 523.152C1166.82 516.46 1167.79 513.476 1176.25 512.924C1183.31 512.463 1184.17 512.693 1187.52 518.418C1195.09 531.307 1191.98 548.574 1180.75 558.123C1173.77 564.055 1164.35 566.601 1157.83 573.155C1147.26 583.798 1151.7 599.002 1164.25 605.925C1186.8 618.354 1211.88 595.892 1235.35 604.001C1237.54 604.762 1238.88 602.193 1238.09 600.442C1228.22 578.983 1220.59 556.763 1214.66 534.06C1216.13 532.459 1217.78 531.065 1219.36 529.591C1219.98 531.515 1220.57 533.45 1221.35 535.35C1225.97 546.5 1243.62 571.611 1257.35 555.911C1257.72 555.496 1257.95 555.001 1258.26 554.563C1261.43 570.413 1256.14 585.917 1249.44 600.177C1247.83 603.575 1244.94 609.991 1241.18 616.05C1231.51 617.87 1222.4 622.028 1214.65 628.559C1213.27 629.723 1213.95 631.715 1215.17 632.602C1221.26 636.991 1227.1 636.565 1232.51 633.339C1251.06 654.338 1281.24 659.717 1308.11 656.077C1344.06 651.205 1379.75 633.363 1409.42 613.044C1411.26 611.777 1409.68 609.116 1407.68 610.06C1376.43 624.804 1347.57 643.683 1312.98 650.03C1286.26 654.937 1255.59 651.101 1236.57 630.356C1236.7 630.241 1236.82 630.137 1236.95 630.022C1250.35 627.442 1264.33 631.266 1277.63 628.225C1281.63 630.368 1285.65 632.429 1290.11 633.466C1309.75 638.062 1314.87 613.643 1316.52 599.256C1316.93 595.593 1317.12 591.976 1317.16 588.394C1320.71 583.544 1324.64 579.041 1329.65 575.758C1339.66 569.204 1351.79 571.242 1363.01 569.273C1365.42 580.4 1364.79 592.552 1362.8 603.287C1362.12 606.904 1360.97 610.256 1359.59 613.435C1343.93 622.282 1325.78 625.922 1309.9 634.468C1307.19 635.92 1308.17 639.606 1310.69 640.527C1326.71 646.425 1345.34 641.552 1356.66 628.686C1359 626.025 1360.81 622.961 1362.35 619.725C1371.97 614.668 1380.19 608.01 1385.52 598.334C1385.97 598.392 1386.43 598.473 1386.88 598.519C1399.32 599.74 1411.85 601.214 1424.32 601.859C1429.77 602.135 1435.53 601.571 1439.9 598C1443.46 595.109 1446.51 589.695 1444.01 585.249ZM1201.92 549.68C1204.74 546.017 1207.68 542.342 1210.71 538.725C1211.53 541.686 1212.33 544.634 1213.21 547.572C1209.58 549.207 1205.92 549.898 1201.92 549.68ZM1213.81 530.778C1210.63 518.188 1207.82 505.494 1205.8 492.593C1208.95 494.885 1212.17 497.316 1215.51 499.919C1214.98 508.696 1215.86 517.612 1218.28 526.343C1216.75 527.771 1215.26 529.257 1213.81 530.778ZM1321.4 636.392C1331.31 632.153 1342.31 628.651 1352.73 624.286C1345.02 633.121 1333.94 638.062 1321.4 636.392ZM1339.6 503.179C1349.56 515.227 1354.84 529.902 1355.68 545.176C1353.69 542.596 1351.44 540.246 1348.81 538.38C1339.45 531.745 1327.29 532.92 1317.78 526.988C1314.25 524.788 1311.81 521.828 1310.01 518.464C1317.5 511 1323.49 501.428 1326.68 494.021C1326.97 493.342 1327.16 492.616 1327.44 491.925C1331.89 495.254 1336.07 498.905 1339.6 503.179ZM1308.02 513.776C1305.5 505.92 1305.75 496.717 1306.45 488.93C1306.69 486.212 1307.02 483.436 1307.34 480.637C1311.51 482.963 1316.08 484.645 1320.22 486.949C1321.29 487.548 1322.2 488.377 1323.22 489.034C1320.32 496.89 1316.23 504.308 1310.82 510.712C1309.95 511.749 1308.97 512.762 1308.02 513.776ZM1327.75 469.498C1327.36 474.071 1326.4 478.563 1325.18 482.987C1319.28 479.819 1313.05 476.755 1308.17 472.758C1309.26 461.159 1309.24 449.479 1303.43 439.078C1304.45 437.096 1305.66 435.184 1306.92 433.307C1307.32 433.192 1307.67 432.984 1308.08 432.88C1327.64 427.927 1328.87 456.413 1327.75 469.498ZM1303.52 467.966C1302.16 466.135 1301 464.165 1300.36 461.873C1298.8 456.367 1299.2 451.138 1300.62 446.15C1302.9 452.635 1303.66 460.399 1303.52 467.966ZM1242.74 442.936C1245.98 435.749 1250.36 429.079 1255.61 423.205C1264.78 412.965 1275.71 406.768 1287.94 401.918C1287.64 403.923 1289.01 405.754 1291.11 405.8C1300.12 406.008 1307.66 408.691 1314.58 413.875C1310.44 418.309 1306.22 423.654 1302.46 429.31C1300.69 430.035 1298.98 430.842 1297.32 431.763C1287.34 423.493 1272.96 425.946 1260.93 431.706C1253.96 435.046 1247.78 439.366 1242.27 444.307C1242.47 443.858 1242.55 443.374 1242.74 442.936ZM1238.64 454.812C1238.65 454.766 1238.68 454.731 1238.69 454.697C1247.13 444.987 1257.88 437.269 1269.95 433.238C1280.21 429.817 1287.49 430.888 1292.61 434.597C1291.63 435.23 1290.68 435.875 1289.79 436.497C1283.12 441.185 1276.57 446.081 1269.97 450.861C1263.11 455.849 1256.28 462 1248.73 465.928C1244.45 468.162 1238.56 467.828 1237.63 461.147C1237.34 459.097 1238.15 456.816 1238.64 454.812ZM1221.31 518.119C1220.42 513.338 1220.09 508.466 1220.11 503.594C1224.65 507.291 1229.07 511.299 1233.37 515.458C1229.53 517.427 1225.84 519.938 1222.34 522.807C1221.91 521.021 1221.55 519.397 1221.31 518.119ZM1240.65 553.296C1231.9 551.799 1226.12 536.836 1223.17 526.02C1226.12 523.659 1229.28 521.563 1232.69 519.881C1233.84 519.316 1235.07 518.867 1236.29 518.395C1243.88 526.158 1250.6 534.533 1254.7 543.483C1250 546.754 1245.32 550.025 1240.65 553.296ZM1241.42 516.782C1246.12 515.619 1251 515.193 1255.71 516.011C1255.94 521.724 1256.2 527.449 1256.39 533.162C1256.46 534.51 1256.47 535.869 1256.52 537.216C1252.56 529.937 1247.3 523.141 1241.42 516.782ZM1258.18 469.429C1256.73 467.874 1253.85 469.049 1253.93 471.192L1255.53 511.53C1249.54 510.493 1243.68 511.265 1238.08 513.373C1232.47 507.694 1226.47 502.338 1220.37 497.466C1220.79 492.582 1221.56 487.721 1222.93 483.021C1224.98 475.972 1228.29 469.245 1232.39 463.013C1232.65 465.202 1233.26 467.275 1234.54 469.015C1242.45 479.842 1257.06 466.607 1263.93 461.631C1270.94 456.54 1277.96 451.449 1284.98 446.357C1288.67 443.685 1292.42 440.782 1296.37 438.271C1296.51 438.456 1296.68 438.605 1296.82 438.79C1290.72 451.679 1289.57 465.582 1301.88 476.859C1302.19 477.147 1302.57 477.342 1302.89 477.607C1302.81 478.391 1302.73 479.186 1302.63 479.934C1301.04 491.96 1299.37 505.886 1304.1 517.52C1302.25 519.144 1300.3 520.618 1298.22 521.873C1287.31 502.753 1272.91 485.198 1258.18 469.429ZM1259.17 477.884C1271.84 491.879 1284.09 507.36 1293.66 524.062C1293.02 524.315 1292.43 524.673 1291.78 524.868C1281.1 528.128 1276.07 521.459 1268.07 516.402C1265.54 514.801 1263.03 513.707 1260.53 512.843L1259.17 477.884ZM1263.79 573.085C1265.07 564.147 1263.91 555.692 1261.16 547.687C1262.68 540.476 1261.28 531.975 1261.02 525.41L1260.71 517.531C1265.84 519.731 1269.8 523.463 1274.66 526.642C1281.88 531.365 1289.21 531.192 1296.07 528.312C1305.98 546.742 1312.28 566.623 1312.1 587.587C1310.43 589.949 1308.84 592.345 1307.28 594.729C1300.36 605.338 1293.34 617.617 1280.88 622.328C1280.35 622.524 1279.81 622.604 1279.28 622.777C1278.11 622.097 1276.95 621.441 1275.84 620.888C1269.92 617.951 1263.78 615.923 1257.18 615.186C1254.16 614.852 1251.2 614.979 1248.25 615.14C1256.9 599.912 1262.7 580.642 1263.79 573.085ZM1242.05 624.482C1242.98 623.284 1243.92 622.04 1244.8 620.703C1249.84 620.035 1254.95 619.851 1260.09 620.819C1263.78 621.51 1267.13 622.95 1270.4 624.551C1261.1 625.403 1251.49 623.94 1242.05 624.482ZM1310.53 604.888C1309.55 610.198 1308.4 617.513 1305.24 621.971C1298.52 631.473 1291.33 629.389 1284.54 625.76C1293.46 621.602 1300 614.034 1305.52 605.971C1307.59 602.942 1309.61 599.74 1311.64 596.526C1311.36 599.302 1311.05 602.078 1310.53 604.888ZM1329.22 571.139C1324.42 573.615 1320.48 577.186 1317.02 581.218C1315.97 561.659 1309.72 543.218 1300.51 526.032C1302.5 524.822 1304.45 523.452 1306.33 521.885C1306.46 522.127 1306.56 522.38 1306.71 522.611C1316.4 538.011 1336.79 534.337 1349.75 545.256C1352.05 547.203 1353.98 549.403 1355.68 551.73C1355.63 553.412 1355.83 555.082 1355.67 556.775C1355.44 559.125 1358.04 560.542 1360.04 560.092C1360.13 560.069 1360.21 560.092 1360.3 560.081C1361.19 562.2 1361.68 564.481 1362.28 566.727C1351.29 568.294 1339.57 565.806 1329.22 571.139ZM1365.91 609.519C1368.38 599.198 1368.39 587.91 1367.36 578.257C1367.03 575.159 1366.49 571.911 1365.76 568.628C1368.3 568.006 1370.78 567.211 1373.17 565.898C1374.47 565.172 1373.33 563.248 1372.01 563.905C1369.77 565.022 1367.44 565.691 1365.09 566.197C1364.56 564.089 1364.07 561.97 1363.35 559.897C1369.38 559.689 1374.38 562.696 1377.94 567.084C1377.1 568.328 1376.2 569.538 1375.46 570.839C1373.16 574.94 1370.59 579.628 1370 584.351C1369.14 591.239 1373.3 594.844 1378.61 596.745C1375.3 601.755 1370.83 606.052 1365.91 609.519ZM1382.72 588.117C1382.22 589.949 1381.44 591.63 1380.62 593.301C1375.22 591.711 1372.65 587.933 1374.44 582.07C1375.68 577.981 1377.81 573.961 1380.14 570.286C1383.14 575.631 1384.31 582.208 1382.72 588.117Z" fill="#003F03"/>
<path opacity="0.08" d="M1450.07 479.289C1457.9 478.356 1465.81 479.462 1473.54 480.706C1479.06 481.593 1485.04 482.987 1490.38 480.672C1493.99 479.117 1497.17 475.742 1497.5 471.675C1497.97 466.112 1492.99 460.975 1490.07 456.724C1486.47 451.449 1482.93 444.63 1478.17 440.287C1474.67 437.097 1470.71 437.96 1467.14 440.494C1461.54 444.468 1456.46 449.076 1450.7 452.866C1444.89 456.69 1438.82 460.134 1432.57 463.175C1426.65 466.054 1416.63 471.929 1409.75 470.213C1404.5 468.911 1402.79 463.037 1407.48 460.261C1409.64 458.993 1412.19 458.441 1414.5 457.531C1418.7 455.86 1422.17 453.488 1423.12 448.777C1424.54 441.854 1421.22 436.325 1425.26 429.679C1435.1 413.483 1455.96 418.897 1469.1 427.19C1470.05 427.789 1470.87 426.315 1469.97 425.693C1459.29 418.356 1445.29 412.85 1432.67 418.713C1427.59 421.074 1422.99 425.129 1420.67 430.312C1417.93 436.44 1420.81 442.453 1419.04 448.477C1416.56 456.874 1396.63 454.663 1400.99 467.275C1405.8 481.236 1425.53 470.927 1433.73 467.045C1440.87 463.659 1447.77 459.754 1454.33 455.342C1457.55 453.177 1460.69 450.896 1463.75 448.512C1465.06 447.486 1466.35 446.415 1467.66 445.379C1468.37 444.803 1469.67 443.328 1470.55 443.144C1473.03 442.626 1476.63 445.344 1478.15 447.037C1481.06 450.274 1483.33 454.409 1485.79 458.014C1487.95 461.205 1492.03 465.432 1492.9 469.245C1494.66 476.951 1484.96 477.884 1479.89 477.262C1475.94 476.778 1472.03 475.96 1468.09 475.431C1454.29 473.565 1438.89 474.025 1428.12 484.093C1420.1 491.591 1417.41 504.285 1423.71 513.73C1432.86 527.449 1452.27 519.374 1465.4 524.212C1471.99 526.642 1478.56 529.902 1485.73 528.025C1490.96 526.654 1494.68 522.922 1494.95 517.416C1495.05 515.608 1492.31 515.297 1491.84 516.99C1489.97 523.82 1481.39 524.454 1475.75 522.899C1469.88 521.286 1464.61 518.222 1458.48 517.474C1446.6 516.022 1428.1 521.609 1425.11 504.907C1422.49 490.094 1437.22 480.833 1450.07 479.289Z" fill="#003F03"/>
<path opacity="0.08" d="M1542.13 415.487C1541.92 413.69 1541.9 411.87 1541.89 410.062C1541.87 406.86 1541.92 403.635 1541.22 400.49C1540.12 395.468 1536.99 389.927 1531.55 388.775C1525.29 387.451 1520.24 392.001 1516.83 396.689C1513.02 401.918 1509.42 408.657 1510.24 415.337C1511.01 421.569 1516.41 427.19 1522.96 426.257C1524.55 426.027 1524.19 423.239 1522.58 423.435C1517.44 424.057 1513.55 419.069 1513.38 414.266C1513.19 408.668 1516.41 403.277 1519.64 398.923C1522.23 395.433 1526.71 390.906 1531.51 392.865C1535.35 394.431 1537 399.304 1537.39 403.082C1537.72 406.295 1537.42 409.555 1537.49 412.78C1537.55 415.983 1537.69 419.53 1539.67 422.168C1540.98 423.907 1543.38 422.859 1543.09 420.728C1542.85 418.966 1542.35 417.261 1542.13 415.487Z" fill="#003F03"/>
<path opacity="0.08" d="M1680.11 387.912C1674.48 375.714 1661.71 369.494 1648.97 367.847C1632.31 365.693 1615.54 370.185 1598.96 368.158C1620.32 354.9 1645.79 352.055 1670.22 358.471C1672.58 359.093 1673.46 355.672 1671.21 354.865C1644.81 345.27 1613.88 351.156 1591.39 367.455C1589.89 368.538 1589.82 371.233 1591.94 371.717C1607.7 375.288 1623.45 371.844 1639.34 371.948C1654.07 372.04 1672.4 376.854 1676.96 393.015C1681.42 408.807 1665.5 421.074 1654.02 428.562C1649.51 431.499 1618.9 449.549 1613.16 443.363C1624.26 434.92 1635.64 425.682 1640.82 412.332C1645.03 401.447 1642.92 387.832 1634.64 379.343C1624.12 368.538 1609.66 373.514 1599.21 381.681C1588.35 390.159 1579.65 402.541 1578.71 416.628C1577.76 430.819 1585.87 444.999 1599.8 449.249C1600.26 449.387 1600.58 448.65 1600.13 448.454C1586.29 442.499 1579.84 425.601 1583.39 411.422C1587.03 396.955 1601.16 380.978 1616.28 378.133C1631.44 375.276 1639.91 392.382 1637.79 405.317C1635.23 420.867 1620.57 431.798 1608.85 440.656C1608 441.301 1607.41 442.269 1607.75 443.375C1611.27 455.066 1629.15 446.462 1635.86 443.617C1648.92 438.099 1662.3 430.485 1672.2 420.164C1680.57 411.468 1685.46 399.535 1680.11 387.912Z" fill="#003F03"/>
<path opacity="0.1" d="M1701.95 739.242C1686.25 726.445 1679.45 707.807 1673.2 689.193C1666.83 670.211 1660.31 651.274 1653.24 632.533C1640.21 598.069 1625.21 560.15 1598.77 533.669C1597.42 532.309 1594.95 534.095 1596.05 535.765C1607.32 552.732 1618.71 569.388 1627.81 587.668C1637.36 606.847 1645.14 626.831 1652.45 646.954C1659.17 665.488 1665.37 684.24 1672.9 702.474C1679.11 717.495 1686.66 731.962 1701.26 740.14C1701.79 740.451 1702.47 739.668 1701.95 739.242Z" fill="white"/>
<path opacity="0.1" d="M1334.07 524.557C1312.98 543.552 1282.25 547.491 1255.63 553.803C1224.78 561.129 1194.05 568.685 1163.39 576.714C1162.66 576.898 1162.98 577.97 1163.7 577.82C1197.02 571.197 1230.19 564.044 1263.35 556.672C1288.46 551.085 1318.6 547.675 1336.12 526.596C1337.29 525.18 1335.47 523.302 1334.07 524.557Z" fill="white"/>
<path opacity="0.1" d="M1456.37 262.658C1446.43 246.636 1436.6 230.567 1428.25 213.647C1423.71 204.443 1419.6 195.055 1416.43 185.276C1413.36 175.773 1412.21 165.902 1409.41 156.364C1409.27 155.869 1408.6 156.007 1408.55 156.479C1406.88 173.746 1414.12 193.051 1420.57 208.763C1427.58 225.868 1436.91 241.936 1446.32 257.809C1466.62 292.065 1485.48 325.435 1496.5 363.976C1497.19 366.384 1501.26 366.038 1501.03 363.366C1497.72 326.299 1475.5 293.505 1456.37 262.658Z" fill="white"/>
<path opacity="0.1" d="M1486.73 462.932C1473.11 460.156 1458.43 462.103 1445.07 465.374C1431.3 468.761 1417.76 474.105 1406.21 482.41C1405.46 482.952 1406.1 484.058 1406.94 483.654C1419.32 477.653 1431.99 472.424 1445.5 469.602C1459.04 466.78 1472.5 467.022 1486.22 466.607C1488.26 466.549 1488.88 463.382 1486.73 462.932Z" fill="white"/>
<path opacity="0.1" d="M1668.59 364.633C1653.31 365.819 1637.71 372.477 1624.03 379.089C1617.01 382.487 1610.02 386.207 1603.66 390.734C1597.51 395.111 1591.09 399.557 1586.61 405.697C1586.23 406.215 1586.93 406.699 1587.39 406.48C1594.05 403.405 1599.88 398.843 1606.24 395.169C1612.83 391.367 1619.38 387.543 1626.26 384.272C1633.1 381.012 1640.15 378.19 1647.36 375.817C1654.58 373.433 1662.04 371.901 1669.23 369.447C1671.7 368.607 1671.5 364.414 1668.59 364.633Z" fill="white"/>
<path opacity="0.1" d="M1529.49 396.943C1527.32 393.81 1525.01 390.768 1522.59 387.843C1521.33 386.322 1520.04 384.825 1518.7 383.362C1517.4 381.922 1515.72 380.816 1514.17 379.665C1513.45 379.135 1512.55 380.148 1512.98 380.851C1516.95 387.267 1521.8 393.061 1525.7 399.546C1529.62 406.077 1532.39 413.172 1536.29 419.68C1537.63 421.915 1541.18 420.452 1540.51 417.906C1538.51 410.293 1533.93 403.37 1529.49 396.943Z" fill="white"/>
<path opacity="0.1" d="M1561.45 512.129C1561.01 510.239 1560.56 508.35 1560.13 506.461C1559.69 504.572 1559.24 502.683 1558.8 500.794C1558.56 499.78 1558.39 498.732 1557.97 497.765C1557.59 496.866 1557.19 495.968 1556.81 495.069C1556.47 494.286 1555.36 494.056 1554.65 494.367C1553.8 494.747 1553.54 495.519 1553.65 496.406C1553.79 497.408 1553.87 498.433 1554.07 499.423C1554.25 500.391 1554.68 501.359 1554.98 502.303C1555.55 504.077 1556.13 505.862 1556.7 507.636C1557.28 509.41 1557.86 511.195 1558.43 512.969C1558.73 513.902 1558.96 514.939 1559.37 515.837C1559.73 516.667 1560.45 517.162 1561.14 517.738C1561.31 517.876 1561.54 517.83 1561.62 517.611C1561.91 516.771 1562.27 515.976 1562.16 515.077C1562.03 514.087 1561.68 513.085 1561.45 512.129Z" fill="white"/>
<path opacity="0.1" d="M1472.98 404.13C1466.65 402.299 1460.35 404.533 1455.06 408.047C1448.36 412.481 1442.29 420.095 1433.83 420.982C1426.96 421.708 1419.89 417.492 1414.18 423.378C1410.07 427.628 1410.43 434.217 1406.73 438.605C1404.34 441.439 1400.47 442.003 1397.21 443.386C1394.49 444.526 1392.03 446.023 1389.86 448.016C1381.43 455.687 1378.65 468.381 1383.37 478.748C1383.84 479.785 1385.59 479.047 1385.21 477.965C1381.46 467.437 1385.96 454.363 1396.33 449.398C1400.94 447.198 1406.34 446.864 1410.16 443.132C1413.4 439.965 1414.33 435.507 1415.96 431.464C1417.28 428.181 1418.84 425.808 1422.8 425.728C1425.98 425.67 1429.09 426.833 1432.28 426.891C1438.1 426.995 1443.46 424.23 1448.07 420.924C1455.93 415.28 1470.67 401.734 1477.69 416.052C1478.82 418.367 1482.63 417.25 1482.51 414.739C1482.25 409.198 1478.12 405.616 1472.98 404.13Z" fill="white"/>
<path opacity="0.1" d="M1654.9 351.985C1645.59 347.124 1633.98 348.587 1624.46 352.365C1621.84 353.402 1619.46 354.807 1616.94 356.017C1613.71 357.572 1611.49 357.18 1608.33 355.832C1604.56 354.22 1600.81 353.149 1596.67 353.033C1581.3 352.63 1566.02 364.034 1563.67 379.503C1563.37 381.473 1566.31 382.371 1566.73 380.344C1569.74 365.462 1586.49 354.83 1601.28 359.23C1604.86 360.29 1607.96 362.721 1611.71 363.25C1616.13 363.872 1619.63 361.672 1623.48 359.875C1633.34 355.291 1643.14 356.247 1653.65 356.535C1656.04 356.616 1657.05 353.114 1654.9 351.985Z" fill="white"/>
<path opacity="0.1" d="M1504.62 525.778C1500.36 531.123 1493.34 534.256 1487.08 530.259C1483.72 528.116 1480.99 525.916 1476.76 526.515C1472.6 527.103 1469.33 530.04 1465.35 531.203C1458.86 533.104 1451.69 531.906 1445.8 528.692C1439.52 525.26 1435.17 519.374 1431.82 513.177C1431.54 512.658 1430.77 512.923 1430.75 513.465C1430.1 529.614 1450.26 539.796 1464.4 537.942C1466.23 537.7 1468.04 537.32 1469.78 536.709C1472.22 535.845 1475.12 533.634 1477.72 533.668C1480.02 533.703 1481.95 535.915 1483.79 536.986C1485.69 538.092 1487.77 538.84 1489.93 539.186C1498.04 540.487 1506.75 536.606 1509.68 528.715C1510.7 525.962 1506.49 523.44 1504.62 525.778Z" fill="white"/>
<path opacity="0.1" d="M1557.85 524.339C1556.69 522 1553.77 521.805 1551.73 520.503C1549.83 519.282 1548.09 517.647 1546.5 516.057C1542.71 512.267 1539.08 508.167 1535.65 504.054C1532.57 500.368 1529.68 496.072 1529.04 491.211C1528.75 489.034 1528.9 486.765 1529.63 484.68C1530.13 483.229 1531.58 481.847 1532.01 480.338C1532.06 480.303 1532.12 480.291 1532.16 480.245C1531.85 480.775 1532.46 481.259 1532.94 481.029C1534.61 480.269 1533.51 478.679 1532.38 478.022C1532.22 477.93 1531.38 477.677 1531.26 477.688C1530.82 477.458 1530.59 477.228 1529.91 477.158C1528.07 476.986 1526.95 478.587 1526.01 479.934C1522.05 485.567 1522.32 493.227 1524.8 499.378C1527.78 506.773 1533.36 512.935 1538.26 519.109C1540.61 522.07 1543.06 524.961 1546.26 527.034C1549.31 529.015 1554.22 531.469 1557.29 528.532C1558.47 527.414 1558.51 525.709 1557.85 524.339Z" fill="white"/>
<path opacity="0.1" d="M1509.01 390.193C1506.37 388.246 1506.7 384.295 1507.91 381.646C1509.34 378.501 1505.87 375.725 1503.17 377.983C1498.27 382.072 1499.33 389.179 1503.15 393.591C1498.73 400.41 1496.51 408.415 1497.18 416.616C1497.53 420.993 1498.58 425.267 1500.37 429.275C1502.31 433.652 1504.71 436.751 1508.82 439.227C1509.32 439.527 1509.89 438.928 1509.61 438.444C1505.7 431.671 1502.29 424.576 1502.15 416.616C1502.01 408.887 1504.48 401.17 1509.67 395.364C1511.21 393.66 1510.76 391.494 1509.01 390.193Z" fill="white"/>
<path opacity="0.1" d="M1368.09 365.416C1368.51 356.052 1374.91 350.442 1376.92 341.941C1378.48 335.387 1375.53 329.397 1373.47 323.362C1370.43 314.469 1370.38 305.899 1372.88 296.857C1374.58 290.672 1377.08 284.647 1375.71 278.116C1374.3 271.366 1369.47 265.987 1367.98 259.168C1365.8 249.159 1368.89 240.6 1372.99 231.616C1374 229.416 1371.26 226.72 1369.38 228.828C1360.55 238.723 1359.46 254.377 1364.21 266.413C1366.19 271.436 1369.7 275.928 1370.37 281.445C1370.98 286.49 1368.18 292.031 1366.91 296.8C1364.95 304.114 1364.63 311.613 1366.22 319.042C1367.12 323.2 1368.93 327.002 1370.15 331.056C1372.48 338.797 1370 343.197 1366.76 349.797C1363.46 356.535 1362.63 364 1363.64 371.406C1365.7 386.472 1375.4 400.825 1386.31 411.019C1386.9 411.571 1387.85 410.869 1387.44 410.143C1379.24 395.768 1367.27 383.19 1368.09 365.416Z" fill="white"/>
<path opacity="0.1" d="M1579.28 285.707C1577.39 279.924 1574.87 274.315 1571.79 269.062C1565.48 258.258 1556.85 248.893 1546.41 242.005C1540.24 237.939 1534.46 234.345 1530.83 227.687C1527.78 222.089 1526.11 215.881 1523.51 210.087C1519.27 200.676 1510.5 190.839 1499.21 194.145C1498.3 194.41 1498.44 195.884 1499.45 195.838C1513.96 195.159 1518.91 211.239 1522.57 222.216C1524.21 227.123 1526.11 232.018 1529.24 236.176C1532.58 240.6 1537.05 243.733 1541.5 246.935C1550.97 253.754 1559.16 261.909 1565.16 271.976C1568.25 277.16 1570.76 282.654 1572.58 288.402C1574.19 293.493 1574.26 299.598 1576.67 304.298C1577.85 306.613 1581.6 306.037 1582.2 303.572C1583.57 298.009 1581.02 291.028 1579.28 285.707Z" fill="white"/>
<path opacity="0.1" d="M1329.29 362.122C1315.95 361.891 1303.61 366.718 1292.79 374.401C1281.04 382.729 1273.53 395.986 1259.7 401.273C1248.71 405.466 1236.59 407.033 1228.08 415.925C1221.25 423.055 1218.49 432.858 1214.85 441.75C1212.16 448.327 1209.15 454.824 1203.11 459.016C1198.24 462.38 1192.08 463.474 1186.95 466.377C1177.32 471.814 1170.35 481.063 1165.54 490.819C1160.04 502.004 1156.85 514.11 1153.73 526.136C1151.78 533.611 1149.86 541.087 1147.92 548.562C1146.01 555.934 1142.87 563.744 1143.15 571.392C1143.16 571.83 1143.72 571.968 1143.96 571.611C1151.26 560.427 1153.37 543.874 1157.17 531.089C1160.79 518.913 1164.2 506.508 1170.07 495.162C1176.46 482.814 1184.96 474.59 1197.83 469.395C1206.68 465.824 1213.14 461.332 1217.83 452.819C1222.65 444.065 1224.59 433.871 1230.09 425.474C1238.06 413.288 1252.29 412.665 1264.59 407.413C1275.11 402.921 1281.5 394.581 1289.61 386.91C1301.01 376.128 1315.12 371.187 1329.98 367.213C1332.83 366.453 1332.21 362.168 1329.29 362.122Z" fill="white"/>
<path opacity="0.1" d="M1423.75 608.679C1415.89 613.701 1408.41 618.596 1399.53 621.741C1390.5 624.954 1381.71 624.977 1372.37 626.106C1356.26 628.076 1348.09 643.926 1332.96 647.324C1329 648.21 1324.18 648.222 1320.94 645.388C1318.61 643.35 1317.65 640.067 1315.62 637.751C1312.18 633.824 1307.94 633.225 1303.24 635.241C1294.51 638.996 1288.03 644.144 1278.09 645.285C1268.66 646.367 1258.95 644.686 1250.11 641.299C1248.7 640.758 1247.92 642.912 1249.11 643.672C1262.9 652.369 1279.84 653.394 1295.01 647.485C1299.07 645.907 1305.76 640.85 1310.31 643.108C1312.26 644.075 1313.71 649.028 1315.55 650.791C1320.03 655.076 1326.38 656.112 1332.33 655.329C1339.51 654.373 1345.4 650.837 1351.09 646.563C1360.68 639.353 1367.18 634.572 1379.55 633.996C1397.08 633.19 1415.71 627.154 1427.42 613.424C1429.5 610.971 1426.82 606.72 1423.75 608.679Z" fill="white"/>
<path opacity="0.1" d="M1609.81 745.3C1601.7 740.935 1591.9 739.725 1583.36 736.212C1572.61 731.789 1563.11 725.12 1557.64 714.615C1553.49 706.632 1551.14 697.613 1543.72 691.877C1535.4 685.438 1523.57 685.83 1516.44 677.548C1509.19 669.116 1508.8 656.929 1514.29 647.645C1519.4 639.029 1519.94 635.297 1514.38 626.647C1500.9 605.66 1498.31 579.72 1508.39 556.66C1509.25 554.678 1506.51 552.916 1505.4 554.92C1494.48 574.709 1493.27 597.666 1502.23 618.503C1505.09 625.149 1513.44 633.904 1509.99 641.633C1508.14 645.745 1505.22 648.67 1504.03 653.266C1501.88 661.64 1503.43 670.994 1507.89 678.354C1512.9 686.613 1520.54 690.115 1529.35 693.11C1537.83 696.001 1542.84 699.986 1546.73 707.945C1549.2 712.979 1551.06 718.278 1554.25 722.931C1564.91 738.493 1589.94 750.196 1608.72 749.332C1610.76 749.228 1611.79 746.36 1609.81 745.3Z" fill="white"/>
<path opacity="0.1" d="M1624.91 638.281C1619.85 641.794 1616.27 647.945 1613.04 653.106C1609.59 658.646 1606.86 664.486 1604.56 670.591C1600.14 682.317 1596.34 696.013 1597.77 708.603C1597.83 709.063 1598.49 709.225 1598.62 708.718C1601.99 696.681 1604.13 684.724 1609.49 673.286C1612.04 667.838 1615.03 662.551 1618.16 657.414C1619.74 654.833 1621.41 652.322 1623.18 649.869C1625.07 647.254 1627.25 644.939 1628.64 642.025C1629.71 639.79 1627.36 636.576 1624.91 638.281Z" fill="white"/>
<path opacity="0.1" d="M1600.49 579.674C1594.37 582.128 1589.45 587.495 1585.27 592.46C1580.92 597.632 1577.1 603.253 1574.02 609.266C1571.01 615.129 1568.95 621.372 1567.6 627.822C1566.29 634.146 1565.12 640.884 1566.61 647.243C1566.75 647.818 1567.56 647.761 1567.73 647.243C1569.58 641.46 1570.33 635.413 1572.25 629.619C1574.2 623.745 1576.89 618.112 1579.86 612.687C1582.73 607.434 1586.12 602.47 1590.07 597.966C1594.2 593.255 1599.54 589.569 1603.44 584.731C1605.07 582.692 1603.62 578.419 1600.49 579.674Z" fill="white"/>
<path opacity="0.1" d="M1576.58 540.085C1571.4 541.824 1566.82 546.086 1563.1 549.968C1559.31 553.93 1555.84 558.215 1552.71 562.719C1549.61 567.188 1547.24 572.095 1545.14 577.094C1543.05 582.105 1541.44 587.138 1541.88 592.621C1541.92 593.059 1542.52 593.451 1542.86 593.024C1546.05 589.097 1548.26 584.696 1550.75 580.308C1553.3 575.827 1556.28 571.646 1559.28 567.465C1562.22 563.364 1565.54 559.54 1569.11 555.98C1572.79 552.329 1577.15 548.954 1580.14 544.715C1581.73 542.504 1579.11 539.232 1576.58 540.085Z" fill="white"/>
<path opacity="0.1" d="M1344.75 546.063C1343.45 549.323 1341.87 552.502 1340.94 555.877C1340.12 558.826 1339.44 561.809 1338.6 564.746C1336.79 571.035 1334.98 577.324 1332.85 583.51C1328.49 596.111 1322.89 608.229 1316.25 619.794C1315.41 621.268 1317.54 622.443 1318.49 621.107C1326.41 609.865 1333.31 597.931 1338.98 585.399C1341.71 579.34 1344.24 573.201 1346.19 566.854C1347.2 563.548 1348.38 560.15 1349.01 556.752C1349.62 553.492 1349.5 550.025 1349.56 546.719C1349.61 543.759 1345.72 543.644 1344.75 546.063Z" fill="white"/>
<path opacity="0.1" d="M1356.56 472.977C1353.69 465.306 1347.85 460.445 1341.35 455.745C1334.64 450.884 1327.37 446.887 1319.73 443.674C1312.45 440.61 1304.69 437.972 1296.82 436.912C1289.3 435.887 1280.67 434.724 1273.38 437.235C1272.84 437.419 1272.83 438.168 1273.38 438.34C1280.35 440.598 1287.84 440.921 1294.93 442.959C1302.24 445.067 1309.39 447.291 1316.24 450.642C1322.79 453.833 1329.05 457.68 1334.78 462.184C1340.74 466.872 1345.74 472.505 1352.53 476.076C1354.46 477.089 1357.45 475.361 1356.56 472.977Z" fill="white"/>
<path opacity="0.1" d="M1306.53 520.353C1299.16 514.732 1291.93 510.09 1283.55 506.047C1276.16 502.476 1268.55 499.24 1260.69 496.809C1245.78 492.202 1226.97 490.37 1212.74 497.65C1212.23 497.915 1212.47 498.744 1213.03 498.721C1220.75 498.503 1228.71 498.122 1236.4 499.009C1244.79 499.977 1253.04 502.396 1261.01 505.172C1268.67 507.833 1276.01 511.265 1283.2 515.009C1290.28 518.706 1297.21 521.851 1304.64 524.823C1307.45 525.952 1308.53 521.874 1306.53 520.353Z" fill="white"/>
<path opacity="0.1" d="M1525.41 240.346C1523.27 249.55 1521.17 258.811 1517.3 267.484C1515.41 271.712 1513.22 275.812 1510.75 279.729C1509.52 281.687 1508.05 283.53 1506.87 285.511C1505.74 287.4 1504.15 289.704 1503.85 291.904C1503.65 293.332 1504.78 295.233 1506.51 294.565C1510.91 292.848 1513.74 287.688 1515.92 283.76C1518.36 279.348 1520.46 274.753 1522.23 270.03C1525.73 260.677 1528.18 250.679 1527.68 240.657C1527.61 239.413 1525.72 239.022 1525.41 240.346Z" fill="white"/>
<path opacity="0.1" d="M1450.48 279.199C1448.19 278.312 1446.13 277.459 1443.73 276.86C1441.51 276.296 1439.32 275.559 1437.24 274.591C1432.91 272.564 1428.77 269.857 1424.99 266.943C1421.04 263.89 1417.46 260.343 1414.09 256.657C1410.67 252.913 1407.81 248.409 1403.49 245.691C1402.94 245.345 1402.3 245.921 1402.43 246.509C1403.69 251.83 1407.47 256.484 1410.62 260.884C1413.84 265.376 1417.33 269.719 1421.34 273.531C1425.2 277.194 1429.63 280.143 1434.49 282.32C1436.89 283.391 1439.35 284.336 1441.9 284.992C1444.93 285.776 1447.48 285.534 1450.49 284.785C1453.46 284.013 1452.96 280.166 1450.48 279.199Z" fill="white"/>
<path opacity="0.1" d="M1476.14 342.194C1470.67 341.215 1464.91 341.284 1459.36 340.973C1453.49 340.651 1447.68 339.661 1442 338.117C1436.48 336.608 1431.13 334.5 1425.88 332.265C1420.67 330.054 1415.99 326.829 1410.68 324.917C1410.08 324.698 1409.55 325.458 1409.86 325.976C1412.89 330.906 1417.92 334.281 1422.71 337.437C1427.89 340.847 1433.62 343.289 1439.49 345.235C1450.44 348.864 1464.98 352.216 1476.14 347.758C1478.46 346.825 1479.25 342.759 1476.14 342.194Z" fill="white"/>
</g>
</g>
<defs>
<clipPath id="clip0_185_77">
<rect width="1600" height="900" fill="white"/>
</clipPath>
</defs>
</svg>
